<svg xmlns="http://www.w3.org/2000/svg" width="200" height="200" viewBox="0 0 200 200"><style type="text/css">.st0{display:none;} .st1{display:inline;} .st2{fill:#FFFFFF;} .st3{display:inline;fill:#FFFFFF;}</style><g id="luci"><path class="st2" d="M1.2 100.3c0-26.7 9.3-49.9 27.6-69 18.7-19.4 42.2-29.9 69-30.2 57.2-.6 102.1 44.1 101 101.6-1 52.4-43.9 97-100.5 96.2-53.6-.7-97.2-44.6-97.1-98.6zm192.6.1c.2-52.5-42-93.8-95.5-94.2-28.5 1.9-52.7 12.6-71 35.1-13.2 16.3-20.3 35.3-20.8 56.4-1.1 55.1 42.3 95.6 92.1 96.4 26.2.4 49.2-8.8 67.8-27.5 18.2-18.3 27.1-40.5 27.4-66.2zM99.5 66.4l-31.9 24 11.8 37.1h39.4l11.8-37.4zM100 12.3c-48.5 0-87.8 39.3-87.8 87.8s39.3 87.8 87.8 87.8 87.7-39.3 87.7-87.8c.1-48.6-39.2-87.8-87.7-87.8zm18.8 115.2l-19.7 58.5-19.6-58.5-59.9-1.4 48.1-35.8-19-59.1 50.9 35.1 50.3-35.1-19.2 58.8 49.2 35.6-61.1 1.9z"/></g></svg>