<svg xmlns="http://www.w3.org/2000/svg" width="200" height="200" viewBox="0 0 200 200"><style type="text/css">.st0{display:none;} .st1{fill:#FFFFFF;} .st2{display:inline;fill:#FFFFFF;} .st3{display:inline;}</style><g id="Amaterasu"><path class="st1" d="M100 6.2c51.7 0 93.7 42 93.7 93.8s-41.9 93.8-93.7 93.8-93.7-42-93.7-93.8 42-93.8 93.7-93.8m0-5c-54.4 0-98.7 44.3-98.7 98.8s44.3 98.8 98.7 98.8 98.7-44.3 98.7-98.8-44.3-98.8-98.7-98.8zM134.3 100.8c-.1 1.6-.3 3.1-.3 4.7.1 3.4-1.5 6.3-2.9 9.2-1.8 3.7-3.9 7.4-7.2 10.1-3 2.5-6 4.9-9.7 6.6-4.4 2-9 2.9-13.6 3.1-3.5.2-7.1-.9-10.7-1.5-5.1-.9-9.3-3.8-13-7.1-2.6-2.3-4.7-5.3-6.7-8.2-1.4-2.1-2.6-4.5-3.5-6.9-.8-2.3-1.3-4.8-1.6-7.2-.7-5-.1-10.1 1.5-14.5 2.2-5.8 5.1-11.5 10.4-15.3 3-2.1 5.9-4.2 9-6.1 1.3-.8 2.9-1.1 4.4-1.4 5.4-1 10.7-1.7 16.3-.4 6.7 1.6 12.5 4.5 17.2 9.3 7.1 7 10.9 15.4 10.4 25.6zM100.2 144.3c1.9 0 3.7.1 5.6 0 1.8-.2 2.4.7 2.1 2.2-.5 2.8-1.2 5.5-1.8 8.3l-.8 3.5c-.7 3.3-1.5 6.6-2.1 9.9-.7 3.7-1.3 7.4-1.9 11.2-.1.6 0 1.2-.3 1.7-.2.4-.7 1-.9.9-.4-.1-.9-.6-1-1-.5-2-.8-4-1.2-6.1l-2-10.2-2.2-9.7c-.6-2.9-1.1-5.9-1.6-8.8-.2-1.4.3-2 1.7-1.9 2.3 0 4.4-.1 6.4 0zM181.9 100.7l-.7.4-10.3 1.7c-1.9.3-3.8.9-5.7 1.3-5.5 1.2-11 2.3-16.5 3.4-.3.1-.5.2-.8.2-3.6.4-3.8.9-3.5-2.9.3-4 .1-8.1.1-12.2.5-.1.8-.2 1.1-.2l10 2.1c.3.1.7.2 1 .2 3.5.6 7 1 10.5 1.7l7.4 1.9 4.9.5c1 .2 1.9.7 2.9 1.1-.2.3-.3.5-.4.8zM41.5 158.1l21.2-31.8c3.7 4 7.2 7.7 10.8 11.6-9.9 6.6-20.6 13.7-31.4 20.9-.2-.3-.4-.5-.6-.7zM158.3 158.8c-3.1-2.1-6-4-8.9-6-6.5-4.3-13-8.5-19.6-12.8-.5-.3-.8-.7-1.3-1.1-2.8-2.2-2.8-2.2 0-4.7 2.4-2.2 4.6-4.6 6.8-7 1.5-1.6 1.7-1.6 3 .2l9.6 14c3.6 5.4 7.2 10.8 10.7 16.2l-.3 1.2zM158.7 42.1c-7.1 10.6-14.2 21.3-20.9 31.4-3.8-3.6-7.4-7.2-11.3-10.9 10.4-6.9 21-13.9 31.6-20.9.2 0 .4.2.6.4zM17.5 100.1l5.4-1.3c3-.7 6.1-1.3 9.2-2 .6-.1 1.2-.4 1.9-.5 5.3-.9 10.6-1.8 15.9-2.8l3.2-1c1.3-.4 2.1.3 2.1 1.6.1 4.2.1 8.4.1 12.6 0 .4-.8 1.1-1.2 1.1-1.2 0-2.4-.3-3.6-.5-.7-.1-1.4-.4-2.1-.6-6.1-1.3-12.2-2.5-18.4-3.7-1.4-.3-2.9-.2-4.3-.4-2.7-.5-5.4-1.1-8.2-1.7.1-.4.1-.6 0-.8zM99.8 18c.5.8 1.2 1.5 1.3 2.2l1.6 8.1c1.2 6 2.4 12 3.7 18l1.5 6.8c.2 1.2 0 1.9-1.5 1.8-4-.2-8-.1-12-.2-2 0-2.4-.5-1.9-2.5.8-3.1 1.6-6.2 2.2-9.3l1.6-9.9c.9-4.8 2-9.6 3-14.4 0 0 .2-.1.5-.6zM73.9 62.7c-2.4 2.2-4.5 4-6.5 5.9-1.2 1.2-2.3 2.4-3.3 3.7-1 1.2-1.9.9-2.6-.1-4-5.9-7.8-11.9-11.8-17.9l-7.4-11c-.3-.5-.4-1-.6-1.5.2-.1.3-.2.5-.4 10.4 7.2 20.9 14.2 31.7 21.3z"/></g></svg>