<svg xmlns="http://www.w3.org/2000/svg" width="200" height="200" viewBox="0 0 200 200"><style type="text/css">.st0{display:none;} .st1{fill:#FFFFFF;} .st2{display:inline;fill:#FFFFFF;} .st3{display:inline;}</style><g id="Baal"><path class="st1" d="M100.5 188.2c-50.4.8-87.3-40.7-88.3-85.2-1.2-50.7 40.2-91.8 89.8-90.3 23.1.7 42.8 8.8 59.3 24.5 16.6 15.8 25.8 35.7 26.8 58.6 2.4 53.5-40.4 93.3-87.6 92.4zm46.8-60.5v-6.8l-.8-.1c-.9 1.1-1.9 2.2-2.7 3.4-1.1 1.7-.4 3 1.6 3.2.7.1 1.4.1 1.9.3-.7.3-1.5.9-2.3 1-2.7.3-2.7.3-2.8 3.1-.1 2.3 1.3 2.4 2.9 2.3h1.1c-.5.4-1 1-1.7 1.3-1.9.8-2.4 2-.9 3.3 1.1 1 2.7 1.5 4.2 1.9.6.1 1.8-.5 2-1.1.8-1.9 1.3-3.9 1.8-6 .1-.6-.2-1.2-.4-2-2 1-2.8 3.3-5.1 2.7.2-.4.3-1 .7-1.2.6-.5 1.5-.7 1.9-1.2.7-.9 1.1-1.9 1.6-2.9-1-.5-2-.9-3-1.2zm-74.9-24.5c-3.2-1.1-6-2.7-9-3.1-4.1-.5-7.7-2.1-11.2-3.9-2.3-1.1-3.2-.6-3.2 2-.1 4.7 1.3 9 3.8 13 2.6 4.3 5.3 8.5 9.7 11.3 2.8 1.8 4.9 4 4.8 7.7-.1 3.3-.1 6.7 1.1 10 1.1 3.1 2.2 6.1 4.8 8.1 5.1 3.9 8.4 8.9 9.5 15.1.7 3.9 1.4 7.6 2.8 11.3 1.8 4.6 5.2 7.8 10 8.1 2.8.2 5.6.1 8.5.1 5.1.1 9-3.9 10.3-7.7 1.6-4.7 3.1-9.5 4-14.4.8-4.2 2.8-7.2 6-9.9 3.6-3 6.5-6.6 7.4-11.3.7-3.9 1-7.8 1.2-11.8.1-1.3.3-2.3 1.5-3.1 1.7-1.1 3.5-2.3 4.9-3.7 3.8-4 7.6-7.8 9.7-13.2 1.2-3.2 2.5-6.2 2.3-9.7-.2-2.3-1.4-3.2-3.4-2.1-3.5 1.9-7 3.3-10.9 4-2.5.4-4.9 1.5-7.3 2.3-.8.3-1.4.8-2.4 1.4.3-2.6 1-4.8-.1-7.2-.6 1-1 1.6-1.3 2.2l-.8-.3c.3-1.1.7-2.2.9-3.4.2-1.4.9-3.5.2-4.2-2.6-2.8-6.1-4.4-9.7-5.5-2.7-.8-5.6-1.2-8.3-1.9-1.6-.4-2.6 0-3 1.6-.6 2.4-1.8 3.6-4.4 2.9-.3-.1-.6 0-.9 0-3.8 0-3.8 0-4.9-3.5-.4-1.3-1.1-1.6-2.2-1.3-5.1 1.3-10.3 2.3-15.1 5-3.1 1.7-4.4 3.5-3.6 6.4l.7 1.5c.3 1.1.4 2.3.5 3.5l-.8.1-1.1-2.6h-.7c-.1 2.2-.2 4.3-.3 6.2zm106.5-7.4c-3.8 1.3-7.1 3.3-11.1 2.2.1-.3.3-.4.5-.5 2.2-.6 4.5-1 6.6-1.7 1.6-.6 3.7-1.3 4.5-2.6 2.1-3.5.9-7.4.7-11.9-1 1-1.6 1.5-2 2.2l-2.2 3.7c-2.4 3.5-5.9 5.5-9.7 7.1-.6.3-1.4 1.7-1.1 2.1 1.4 2.6.5 5.3.8 8 .1.7.4 1.9.8 2 1.7.6 3.6.8 5.4 1.2l1.9.3c-1.8 1.3-3.4.8-5.1.1-1.3-.6-3.2-1.3-3.9.3-.9 2.2-.9 4.7-1.3 7.1 0 .1.3.2.5.3 1.7 1.2 3.3 2.5 5 3.6.4.3 1.7-.2 2.2-.7 3.5-3.7 2.8-9.4 6.5-13 .2-.2.1-.6.2-.8.3-.8.8-1.6.9-2.5 0-2.2.9-4.3-.1-6.5zm-63.8-24.6c-1 .4-3 .6-4 1.7-1.7 1.9-2.8 4.4-4.1 6.8-.2.3.5 1.6.8 1.7 3.6.2 6.9 1.2 10 2.7 2.9 1.4 5.7 3.2 8.6 4.7.6.3 2 .2 2.3-.2 1.5-2.2 2.9-4.6 4-7 .4-.7.2-2.2-.3-2.8-4.3-5-10.2-6.9-17.3-7.6zm-21.4 9.9c-.6-1.2-1-2.3-1.6-3.2-1.5-2.2-2.2-5.4-5.2-6.1-1.9-.5-4 .1-5.9.2-5.4.3-9.7 2.9-13.2 6.8-.5.6-.7 1.9-.4 2.6 1.1 2.3 2.6 4.5 3.9 6.8.8 1.4 1.3 1.3 2.7.4 3.3-2.1 6.8-4.1 10.4-5.5 2.7-1.1 5.8-1.3 9.3-2zm-8.9-11.8c-2.1-2.5-4.2-5.2-6.4-7.7-.6-.6-1.6-1.1-2.4-1.2-7.1-.8-13.1 1.4-17.6 7.1-.9 1.2-1 2.3.2 3.4 1.5 1.5 3 3 4.4 4.6 2 2.3 2.1 2.3 4.3.4 4.6-3.7 9.5-6.6 15.7-6.5.8.1 1.5-.1 1.8-.1zm29.9-.8c.2.3.3.6.5.8l2.1.2c1.4.1 3 0 4.3.4 4.4 1.3 8.5 3.2 11.6 6.6 1.2 1.3 2.3 1.2 3.4-.1 1.5-1.8 2.8-3.7 4.6-5.2 1.8-1.5 1.3-2.5.2-4.1-2.3-3.1-5.4-5.1-8.9-6.2-3.1-.9-6.7-1.8-9.5 0-3.2 2-5.6 5-8.3 7.6zm-81.6 29.4l-.6.5c-3.3.5-6.2-.9-9.2-1.8-.9-.3-1.9-.2-2.8-.3 0 .8 0 1.6.1 2.4.1.6.3 1.1.5 1.7.5 1.7.7 3.6 1.6 5.1.6 1.1 2.2 2.3 3.3 2.3 2.6 0 5.1-.7 7.7-1.2.3-.1.7-.7.7-1.1.2-3.1-.5-6.2 1-9.4.8-1.7-1.7-1.8-2.9-2.5-2-1.3-4.3-2.3-5.9-3.9-2.3-2.3-4.1-5.2-6.4-8.2-.1 1.2-.3 1.9-.3 2.6v5.9c0 3.5 1.8 5.5 5.4 6.1 2.6.2 5.1 1 7.8 1.8zm95.1-40.9c1.5.9 2.3 1.7 3.2 1.9 4.9 1 8.7 3.7 11.8 7.5 1.2 1.4 2.1 1.1 3.3.4 2-1.3 4-2.5 5.9-3.8.5-.4 1.2-1.4 1-1.8-1.6-3.4-3.9-6.4-7.3-8.1-2.2-1.2-4.6-1.5-7.1-.4-3.3 1.3-6.7 2.6-10.8 4.3zm-81.9 4.2c.6.7.8 1.1 1.1 1.3 2.1 1.5 4.1 3 6.3 4.2.7.4 2.4.4 2.8-.2 3.3-4.1 7.2-7 12.5-7.9.8-.1 1.4-1 2.6-1.8-4.2-1.7-7.8-3.1-11.4-4.5-.8-.3-1.9-1.1-2.6-.8-2.1.8-4.3 1.6-6 3.1-1.9 1.8-3.5 4.3-5.3 6.6zm128.8 8.6c-.2.1-.4.2-.7.3-1.5 3.3-2.8 6.8-4.6 9.9-1.6 2.8-3.5 5.5-5.8 7.7-1.3 1.3-1.3 2.2-.6 3.4.9 1.5 2.5 1.8 4.6.5 4.6-2.7 8.1-6.4 9.9-11.5.4-1.1 1.2-2.3.9-3.2-1-2.4-2.5-4.7-3.7-7.1zm-140 23.2c2.5-2.3 2.6-4.1.3-6.2-.8-.8-1.9-1.5-2.4-2.5-2.2-4.1-4.3-8.4-6.4-12.6-.6-1.1-1.9-1.4-2.4-.3-1.5 3-4.2 5.6-1.6 9.6 2.5 3.8 4.1 8.1 8.7 9.9 1.3.5 2.5 1.4 3.8 2.1zm5.3-30c-.5.1-1 .1-1.5.1-4.3.3-5.4 2.1-3.6 6.1.7 1.7 1 3.6 1.8 5.2 1.3 2.7 2.8 5.4 4.5 7.9.4.6 2 .6 3 .6.2 0 .6-1.4.5-2.2-.2-1.8-.8-3.5-.9-5.3-.1-3.2-.3-6.5.1-9.7.2-1.7.1-2.3-1.5-2.5-.8-.2-1.6-.2-2.4-.2zm125.7 2.2c-.8-.6-1.5-1.8-2.4-1.9-2.3-.3-4.6-.2-6.9 0-.4 0-.9 1.2-.9 1.9 0 1 .5 2.1.4 3.1l-1 12.5c0 .7.4 1.5.6 2.2.9-.3 2.1-.3 2.6-.9 1.5-2 3-4 4-6.2 1.4-3.3 2.3-6.8 3.6-10.7zm-11.5 6.1c-.1 0-.1 0-.2-.1 0-1.7.1-3.3 0-5-.1-1.9-1-2.3-2.6-1.2-1.1.7-2.3 1.4-3.4 2.2-1.1.9-2.3 1.8-3.1 3-.3.5.4 1.7.6 2.6.1.5.1 1 .1 1.5-.1 2.7 0 5.3-.2 8-.1 1.7.4 1.9 1.9 1.3.8-.4 1.7-.7 2.6-.7 1.6 0 2.4-.9 2.7-2.3.6-3 1.1-6.1 1.6-9.3zm-100.6 12.5c0-.7.1-1.6.1-2.5.1-3.2-.1-6.4.4-9.5.2-1.5 0-2.4-1-3.1-1.7-1.4-3.5-2.7-5.4-3.8-1.1-.7-2-.5-2.1 1.1-.3 5.1-.1 10.1 1.4 15 .4 1.3 1.1 1.9 2.5 2 1.2.1 2.4.5 4.1.8zm118.6-15.2c-.8-.7-1.9-1.7-3.1-2.5-1.2-.8-2.3-1-2.5 1l-.7 2.9c-.6 5-2.9 9.2-6.1 12.9-1.1 1.4-.8 2.2.3 3.3 1.1 1 1.8.7 2.9-.2 3.8-3.3 5.6-7.8 7.8-12.1.6-1.5.8-3.2 1.4-5.3zm-140.3-3.3c-1.2.8-2.7 1.6-3.9 2.6-.5.4-.6 1.7-.4 2.3.6 1.8 1.5 3.4 2.3 5.2 1.6 3.9 3.4 7.7 6.7 10.4.6.5 2.1.8 2.4.5.7-.8 2.2-1.6.8-3.4-1.8-2.4-3.5-5-4.7-7.7-1.3-2.9-2-6.2-3.2-9.9zm110.4 6.4c-1 1.3-1.7 2.3-2.6 3.2-2.9 3.2-5.6 6.4-4.4 11.2.4 1.4.5 2.8.8 4.3l3.2-2.2.4-.2c2.3-1.2 3.7-2.9 3.4-5.8-.1-.8 0-1.8.4-2.6 1.3-2.5.7-4.8-1.2-7.9zm-85.1.6h-.9c-.3.9-1 1.8-.9 2.6.2 2.7.7 5.3.8 7.9.1 2.2 1.3 3.6 2.8 4.8.9.7 1.8 1.4 2.8 2 .4.3 1 .2 1.5.3.1-.5.2-1 .3-1.6l.4-3.2c.1-1.6.7-3.7-.1-4.8-1.9-2.7-4.4-5.3-6.7-8zm-29.7 36.8c-3.3-.3-3.7 0-2.6 2.7 1.1 2.6 2.6 5.1 4 7.5.2.3 1.3.4 1.8.1 1-.5 2-1.3 2.9-2.1 2.9-2.3 2.9-2.3 1.9-5.8-.1-.4-.1-.9-.1-1.3-.2-2.5-1.4-3.3-3.9-2.4-1.3.5-2.6.9-4 1.3zm24.5-57.3l-.1-.7c-2 0-4-.2-6-.1-1.1.1-2.5.1-3.3.8-2.5 2.3-4.8 4.8-7 7.3-.4.4-.5 1.3-.3 1.8.2.4 1 .6 1.6.6 1.9.1 3.8-1.1 5.8-.2.3.2 1.3-.4 1.6-.9 2.1-3.2 4.2-6.5 7.7-8.6zm95.1-.1c4.6 2.9 4.7 4.1 7.8 8.3.5.6 1.5 1.5 1.9 1.4 1.8-.8 3.5-.1 5.2.2.6.1 1.3-.1 2-.2-.2-.8-.1-1.9-.6-2.5-1.7-2-3.5-3.9-5.3-5.8-2.2-2.3-8-3.1-11-1.4zm-117.2 70l4.6 6.5c1.2-1.7 2.1-2.9 3.1-4.2 2.3-3 2.3-3.8-.5-7-2.3 1.4-4.5 2.9-7.2 4.7zm139.3-.2c-2.6-1.7-4.8-3.1-7-4.6-2.2 2.3-2.8 4.5-1.7 5.9 1.3 1.6 2.8 3.2 4.6 5.2 1.5-2.3 2.8-4.3 4.1-6.5zm-103-37.6c-2.6 3.6.2 12.8 4.3 14.5 1.5-5.7-1.1-10.1-4.3-14.5zm-23.1 42.8l.6-.3c-.8-.9-1.6-1.9-2.5-2.7-.4-.3-1.6-.3-1.7 0-1.1 1.6-2.2 3.2-2.9 5-.6 1.4 2 5.2 3.5 5.3.5 0 1.3-.3 1.4-.6.6-2.2 1-4.4 1.6-6.7zm90.1-42.7c-2.9 4.3-6 8.6-4.1 14.3 4.4-2.6 6.8-11.1 4.1-14.3zm30.3 45.5c-1.1-1.9-1.9-3.3-2.8-4.6-.6-1-1.3-2-2.7-1.2-1.8 1-2.3 2.4-1.7 4.1.6 1.6 1.1 3.2 1.4 4.8.2 1.3 1.2 1.9 1.9 1.3 1.5-1.2 2.6-2.9 3.9-4.4zm-115 2.4c.2-.2 0-.1 0 0-.8 3.1.9 5.6 1.8 8.3.1.3.9.4 1.4.5 2.6.2 4.7-1.6 5.4-4.4-2.9-1.5-5.6-2.9-8.6-4.4zm113-79.2c.3 1 .3 1.7.7 2 2.4 1.9 3.5 4.6 4.5 7.4.6 1.7 2.9 2.6 4.7 2.1-.6-5.9-3.8-9.5-9.9-11.5zm-133.5 11.4c1.8.4 4-.7 4.7-2 1.3-2.4 2.9-4.8 4.3-7.2.3-.5.5-1.2.9-2.1-6.3 2.1-9.9 6.4-9.9 11.3zm29.7 67.5c0-2.1-.7-3.1-2.9-3-.9 0-1.8-.4-2.7-.5-.8-.1-1.5.1-2.3.2.1.9 0 2.1.5 2.7.9 1 2.2 1.7 3.4 2.3.9.4 2.1.6 3 .4.5-.1.7-1.3 1-2.1zm98.8 2c-.4-1.3-.7-2.6-1.3-3.8-.2-.5-.8-.9-1.3-1.4-.5.6-1.3 1.2-1.4 1.9-.4 2.5-.7 5.1-.9 7.6 0 .4.1.9.4 1.1.3.2.9.2 1.2 0 2-1.3 4-2.5 3.3-5.4zm-111.1-6.2c-3.6 5.4-2.9 10.2 1.8 11.7v-2.6c0-2.2-1.8-4.3-.5-6.6.3-.4-.7-1.4-1.3-2.5zm6.8-.2c3.8.5 4.8-.2 3.8-2.4-.5-1.2-1.3-2.2-2-3.3-.2-.3-.8-.4-1.2-.6-.2.4-.5.9-.5 1.3-.1 1.6-.1 3.2-.1 5zm-29.9-56.3c3.4-2.8 4.8-5.1 3-7.9-1.3 2.3-2.9 4.5-3 7.9zm151.8-8.1c-1.2 3.6-.6 4.9 2.9 7.6.4-3-1.8-4.8-2.9-7.6zM62.3 102.7c.9 0 1.9-.4 2.6-.1 3.3 1.6 7.1 2.1 9.4 5.5.3.4 1.1.8 1.5.7 3.4-1.5 6.7-3.1 9.9-4.9 3.4-1.9 5.3-5.4 7.7-8.4 1.4-1.8 3.3-3.3 5.1-4.7 1.2-.9 4.3.3 5.7 1.9 2.6 3 5 6.2 7.7 9 2.9 3 6.3 5.4 10.7 5.9.7.1 1.3.7 2.2 1.2 2.8-3.6 7-5.1 11.3-6.3.6-.2 1.3.1 2 .4-3.2 1.7-6.1 3.5-8 6.6-.2.4-1.2.2-2.4.4.2.6.3 1.5.7 1.9 3.7 3.2 3.7 7.3 2.9 11.7-.6 3.6-.5 7.3-1.1 11-.4 2.8-1.1 5.6-2.3 8.1-1.1 2.2-2.8 4.2-4.7 5.8-5.5 4.5-8.1 10.3-8.6 17.2-.3 4.1-1.1 8-3.9 11.2-2.7 2.9-5.9 4.1-9.9 4-3.2-.1-6.2-.5-8.9-2-2.5-1.4-4.5-3.4-5-6.5-.9-4.6-1.6-9.3-2.8-13.9-.9-3.5-3.3-6.2-5.9-8.7-2.3-2.2-4.6-4.5-6.2-7.1-1.3-2.1-1.7-4.8-2.1-7.3-.8-5.4-1.5-10.7-1.7-16.1-.1-2 1.5-4.1 2.4-6.1l1.4-1.6c.2-.4-.2-1.1-.6-1.5-.5-.5-1.3-.8-1.8-1.2-2.3-2-4.7-3.9-7.3-6.1zm26.8 30.4c2.3 2 5.7 1.5 6.9-1.4-.7.1-1.6-.1-1.9.2-1.4 1.6-2.3.2-3.2-.5-.5-.3-.8-.8-1.2-1.2-2.8-2-5.7-3.9-8.4-5.9-2.7-2.1-5.6-2.7-8.9-2.3-1.4.2-1.6.8-1 1.9 1.2 2.1 2.3 4.3 3.8 6.1 2.3 2.8 4.4 6.3 8.8 5.3 1.8-.2 3.3-1.3 5.1-2.2zm22.1 0c1.1.6 2 1.4 3 1.6 1.8.4 4 1.1 5.3.4 2.2-1.3 4-3.4 5.7-5.4 1.5-1.8 2.5-4 3.6-6.1.2-.3-.5-1.5-.7-1.4-2.3.1-4.9-.2-6.7.8-4.2 2.4-7.9 5.5-11.9 8.3-1.1.8-2.1 2.4-3.7.6-.3-.3-1-.2-1.6-.2.8 2.9 3.8 3.5 7 1.4zm-.5 37.3v-.9c-.7-.3-1.7-1.2-2.1-.9-1.6.9-3.1 2.2-4.5 3.3-2.3 1.8-4.6 2.6-6.8.6-1.6-1.5-3.5-2.6-5.4-3.7-.4-.3-1.6 0-1.9.4-1 1.3-.2 2.5 1.7 2.9 3.3.7 6 2.1 7.1 5.7.2.5 1 1.1 1.5 1.1s.9-.8 1.3-1.4c.6-.9.9-2 1.7-2.6 1.7-1.1 3.7-1.9 5.5-2.9.7-.5 1.3-1.1 1.9-1.6zm-28.4-60c.2.7.2.8.2.8 4.6 2.7 9.4 5 12.8 9.3.3.4 1.2.3 2.4.5-.5-1.1-.6-1.7-1-2.2-2.8-3.8-6.9-6.1-10.9-8.4-.8-.4-2.2 0-3.5 0zm20.8 10.7c4.9-3.5 9.6-6.9 14.3-10.3 0-.2 0-.4-.1-.6-1.3.2-2.9 0-4 .6-2.7 1.6-5.4 3.4-7.7 5.4-1.1 1.1-3.1 2.3-2.5 4.9zm-8.8 17.4l-.9-.2c-.8 3.1-1.8 6.2-2.4 9.3-.5 2.6-.8 5.2-.9 7.9 0 .7.7 1.5 1 2.3.3-.6.9-1.2 1-1.8.2-2.2.2-4.5.5-6.7.5-3.4 1.3-6.8 2-10.2 0-.2-.2-.4-.3-.6zm12.4-.3c-.4.1-.8.1-1.1.2.1 1 .2 2 .4 3s.6 2 .8 3.1l1.5 11.7c.1.5.7.9 1 1.3.3-.6 1-1.1.9-1.6-.3-2.9-.7-5.8-1.2-8.7-.6-3-1.5-6-2.3-9zM51.7 100.6c1.6.7 2.8 1.2 3.9 1.8 3.2 1.7 6.4 3.3 9.5 5.2 3.8 2.3 4.1 3 2 6.7-1 1.9-1.2 3.6-1.1 5.5l-.1 1c-3.9.4-13.5-12.4-14.2-20.2zM134.5 121.9c-.1-1.2-.2-1.9-.2-2.7.2-2.4-.9-4.3-2.1-6.1-.7-1.1-.8-1.9.1-3 2.5-3.3 6.1-4.8 9.7-6.4l3.8-2c.8-.4 1.7-.5 2.7-.7-2 8.9-6.9 15.3-14 20.9zM.9 100.3c0-26.7 9.3-49.9 27.6-69 18.6-19.4 42.1-29.9 69-30.2 57.2-.6 102.1 44.1 100.9 101.6-1 52.4-43.9 97-100.5 96.2-53.4-.7-97.1-44.6-97-98.6zm192.7.1c.2-52.5-42-93.8-95.5-94.2-28.5 1.9-52.7 12.6-71 35.1-13.3 16.3-20.4 35.3-20.8 56.4-1.1 55.1 42.3 95.6 92.1 96.4 26.2.4 49.2-8.8 67.8-27.5 18.1-18.3 27.1-40.5 27.4-66.2z"/></g></svg>