<svg xmlns="http://www.w3.org/2000/svg" width="200" height="200" viewBox="0 0 200 200"><style type="text/css">.st0{display:none;} .st1{fill:#FFFFFF;} .st2{display:inline;fill:#FFFFFF;} .st3{display:inline;}</style><g id="Baphomet"><path class="st1" d="M1.3 100.3c0-26.7 9.3-49.9 27.6-69 18.6-19.4 42.1-29.9 69-30.2 57.2-.6 102.1 44.1 101 101.6-1 52.4-43.9 97-100.5 96.2-53.6-.7-97.2-44.6-97.1-98.6zm192.7.1c.2-52.5-42-93.8-95.5-94.2-28.5 1.9-52.7 12.6-71 35-13.3 16.4-20.4 35.4-20.8 56.5-1.1 55.1 42.3 95.6 92.1 96.4 26.2.4 49.2-8.8 67.8-27.5 18.1-18.3 27.1-40.5 27.4-66.2zM100.1 154.4l-3.1 3.1c-1.1-1.1-2.1-2.2-3.1-3.3-.2-.2-.1-.7-.2-1l-2.3-9.8-.2-1.5c-.8-3.3-1.4-6.7-2.4-9.9-1.1-3.6-2.9-6.9-3.8-10.5-.6-2.4-.6-5.1-.4-7.6.4-3.5-.9-6.3-2.9-8.9-.4-.6-.7-1.3-1.2-2.4 5 .8 5-2.7 5.9-5.6 1 1.3 1.9 2.4 2.8 3.6 1.5-2-.2-3.3-.8-4.3-1.8-2.7-3.9-5.4-6.3-7.5-3-2.6-4.1-2.1-5.6 1.2-1.8-2.1-1.5-4.6.7-6l2.7-1.6c2.6-1.8 3.3-5.1 1.7-7.9-1.5-2.6.5-5.9 3.4-6.5 3.3-.7 5.2 1.3 7.2 3 3.8 3.1 9 4.2 13.6 1.1 1.4-.9 2.9-1.7 4.1-2.8 2.8-2.4 8.2-1.3 9.7 2.1.2.4.3 1.2 0 1.4-2 1.6-1 4-1.5 6-.5 1.9 1.2 3.4 3.8 4.5 3 1.2 3.8 2.5 2.3 6.3-.4-.4-.8-.8-1.1-1.2-1.1-1.3-2.8-1.6-4.1-.5-3.1 2.8-6.4 5.3-7.8 9.4-.3.8-.4 1.6-.6 2.4.2.1.4.2.7.2.8-1.2 1.7-2.4 2.5-3.7h.5c.1 1.1 0 2.3.3 3.4.3 1 .9 2.2 1.7 2.7.6.4 1.8-.1 3.2-.3.8 1-.3 2.1-1.1 2.9-2.1 2.1-2.7 4.5-2.6 7.3.1 1.2.1 2.4.1 3.6-.1 2.4-.2 4.7-1.4 7.1-1.8 3.8-2.9 8-4.1 12.1-1.3 4.4-2.3 8.9-3.4 13.4-.2 1-.3 2.1-.3 3.2 0 2-1 3.5-2.4 4.8-1 .9-1.8.8-2.6-.4-.4-.5-1.1-1.1-1.6-1.6zm-8.6-48.9c-.2 1.1-.6 1.8-.5 2.5.2 2.2.6 4.4.7 6.5.2 4.3 1.3 8.9.2 12.8-1.4 5 .3 9.2 1 13.7.4 2.8 1.5 5.5 2.4 8.2.3.9.9 1.7 1.4 2.8 4-3.5 1.2-8.1 3.3-11.6.4.9.6 1.8.7 2.7.3 2.1.4 4.2.9 6.3.2.9 1.1 1.6 1.7 2.4l.7-.3c.5-1.4 1.1-2.7 1.4-4.2.6-2.2 1.3-4.5 1.6-6.7.5-4 1.2-8 1.2-12.1 0-5.7-.8-11.4.7-17.1.5-1.7.2-3.5.3-5.2l-1.3-.8c-.4.7-.9 1.4-1.1 2.2-.9 4.3-1.6 8.6-2.6 12.8-.9 4.1-1.9 8.1-3 12.1-.1.5-.9.9-1.4 1.4-.8-1.8-1.6-3.2-1.9-4.8l-2.9-15.6c-.6-2.6-.7-5.6-3.5-8zm-3.8-19.5c.7 2 1 3.5 2.8 2.7.3-.1.5-1.8.4-1.9-.8-.4-1.8-.5-3.2-.8zm25 1.2c-1.1-.6-1.8-1.2-2.1-1.1-.7.4-1.2 1.1-1.6 1.8-.1.1.9 1.1 1.1 1 .8-.3 1.4-.8 2.6-1.7zM169 65.9c-.1 1.6 0 3.3-.3 4.9l-2.1 9.5c-1 5-2.7 9.7-5.1 14.2-2.9 5.5-6.1 10.8-10.2 15.4-4.8 5.4-10.3 10-16.3 14.1-5.1 3.4-10 7.1-15.1 10.6-2.2 1.5-4.4 2.9-6.7 4.3-.2.1-1.2-.6-1.2-.8.9-3.3 1.7-6.5 2.8-9.7.3-.9 1.7-1.5 2.8-2 3.8-1.6 6.9-4.3 9.7-7.1 3.9-4 7.5-8.4 11.2-12.6.5-.6.7-1.5 1-2.3.9-2.1 2.6-3.2 4.4-4.6 3.8-3 7.4-6.4 10.6-10.1 5-5.7 8.9-12.2 11.9-19.2l1.8-4.6h.8zM32.2 67.4c1.3 2.9 2.2 5.4 3.5 7.8 1.9 3.3 3.9 6.6 6.1 9.7 4 5.7 8.5 11.1 14.5 14.9 1.8 1.2 3 2.6 4.1 4.5 4.4 8 10.6 14.5 18.2 19.6 2 1.3 4.1 2.4 5.9 3.9 1.1 1 2 2.6 2.4 4 .7 2.3.9 4.7 1.4 7.6-3.4-2.1-6.5-3.9-9.5-6-7.5-5.3-15.1-10.6-22.2-16.4-6-4.8-11.2-10.4-14.7-17.3-2.5-4.8-5-9.6-7.3-14.5-.6-1.4-.8-3-1.1-4.5-.7-4-1.3-8.1-1.9-12.1-.1-.2.2-.5.6-1.2zM154.5 40.4c-.3 1.2-.5 2.3-.9 3.4-1.4 4.1-3.4 7.7-6.6 10.8-3 2.9-6.6 4.6-10.6 6-3.9 1.4-8 3-10.7 6.5-.7.9-1.3 1.8-2 2.6-1.5 1.7-2.3 1.7-3.5-.2-1.1-1.7-2.5-2.8-4.5-3.3-1.6-.4-3.1-.9-4.7.1-.4.3-1.1.2-1.7.2-.1-.2-.2-.3-.4-.5l2.3-3.1c4.6-5.5 10.5-8.7 17.4-10.5 6.1-1.5 12.1-3.4 18-5.4 3.1-1.1 4.9-4 6.9-6.6.1-.1.3-.2.4-.4.3.3.5.3.6.4zM91.2 66.4c-1 .1-1.6.3-2 .1-4.4-2.2-7 .5-9.4 3.4-1.1 1.4-1.9 1.5-2.9.1-3.2-4.2-7.3-7.2-12.2-9.2-1.3-.6-2.7-.9-4-1.4-4.9-1.9-8.7-5-11-9.7l-3.1-5.9c-.4-.8-.4-1.7-.1-2.6 1.8 1.7 3.5 3.6 5.4 5.1 1.3 1.1 3 1.9 4.6 2.4 5.2 1.5 10.5 2.9 15.8 4.2 8 1.9 13.7 6.9 18.9 13.5zM129 155.8c.9-2 1.8-3.4 2.2-4.9.4-1.4 1.2-1.4 2.3-1 3.9 1.6 7.7 3.2 11.5 4.8l2.1 1.4c1 .5 2.1.9 3.2 1 1.7.2 4.1 2.5 4.3 4.4.2 1.7-1.7 4.2-3.6 4.5-1.3.2-2.3 0-2.4-1.6-.1-1.4-.8-2.9.4-4.3.2-.3-.2-1.1-.3-1.6-.6.3-1.6.5-1.6.8-.3 2.4-1.9 1.8-3.2 1.3-3.1-1.1-6-2.4-9.1-3.4-1.8-.6-3.7-.9-5.8-1.4zM55.5 160.9c-1.8 0-3-.2-3.3-2-.3-1.7-.1-2.7 1.8-3.4 4.4-1.7 8.7-3.8 13-5.6.5-.2 1.6.1 1.8.5.7 1.3 1.2 2.8 1.6 4.3.1.4-.5 1.3-1 1.5-1.8.8-3.7 1.4-5.6 2-2.5.9-4.9 1.7-7.4 2.5-.3.1-.8.1-.9.2zM119.7 153.6c-2.9-1.3-5.3-2.3-7.7-3.4-3-1.4-3-1.5-1.8-4.8.2-.6.3-1.2.3-1.9.2-1.9 1.4-2.5 3.2-1.6 2.5 1.2 5.1 2.5 7.7 3.5 1.2.5 1.3 1.4.7 1.9-1.7 1.6-2.8 3.5-2.4 6.3zM121.3 163c0-.5-.2-1.2 0-1.6 1.8-3.1 1.5-6.2 0-9.4-.2-.4 0-1.3.3-1.7 2.7-3 5.5-6 8.6-9.4.3.9.9 1.9.8 2.8-.6 2.7-1.3 5.5-2.4 8.1-1.4 3.4-3.2 6.6-4.9 9.9-.4.7-1.1 1.2-1.7 1.8-.3-.2-.5-.3-.7-.5zM77.3 146.2c3.1-1.5 6.1-3.1 9.1-4.5 1.6-.8 3 0 3.3 1.7.3 1.6.6 3.2.8 4.8 0 .4-.5 1.1-1 1.4-2.4 1.2-4.9 2.4-7.4 3.5-.3.1-1.3-.4-1.3-.4.8-2.7-1.8-3.7-2.8-5.4-.2-.4-.5-.8-.7-1.1zM70 140.8c3 3.6 6 7.1 9.2 10.8-1.5 3-2.5 6.3-.7 9.9.2.4-.2 1.2-.4 1.8h-.7c-1.5-3-3-6-4.4-9-1.2-2.7-2.4-5.4-3.3-8.2-.5-1.6-.4-3.5-.6-5.2l.9-.1zM45.8 161.9c0-1.8 1.6-4 3.3-4.5.5-.2 1.3 0 1.8.3.3.3.1 1.1.3 1.6 1.1 2.2.8 4.3-.1 6.4-.1.2-.6.4-.9.4-1.6.2-4.5-2.5-4.4-4.2z"/></g></svg>