<svg xmlns="http://www.w3.org/2000/svg" width="200" height="200" viewBox="0 0 200 200"><style type="text/css">.st0{display:none;} .st1{fill:#FFFFFF;} .st2{display:inline;fill:#FFFFFF;} .st3{display:inline;}</style><g id="DeadLuci"><path class="st1" d="M100 6.2c51.7 0 93.7 42 93.7 93.8s-41.9 93.8-93.7 93.8-93.7-42-93.7-93.8 41.9-93.8 93.7-93.8m0-5c-54.4 0-98.7 44.3-98.7 98.8s44.3 98.8 98.7 98.8 98.7-44.3 98.7-98.8-44.3-98.8-98.7-98.8z"/><path class="st1" d="M157.5 85.1c-.8 6.1-1.1 11.8-2.3 17.3-1 4.3-3 8.5-4.7 12.6-.7 1.7-.5 3.3 1.2 3.7 2.8.7 3.2 2.9 3.1 4.9-.3 4.8-1.8 9.3-4.9 12.9-2 2.3-5.1 3.7-7 6-1.9 2.3-4.5 2.3-6.9 3.1-.6.2-1.4 0-2.1 0-1.9-.2-3.8-.5-5.7-.5-2 0-3.1 1.9-3 3.8.2 3.8.3 7.6.3 11.3 0 .4-.2 1-.6 1.3-2.8 2.4-5.7 4.8-8.6 7.1-.4.3-.8.6-1.3.8-6.3 2.1-12.8 3.7-19.5 3l-8.2-2.3c-3.3-.4-5.3-2.3-7.5-4.3-1.8-1.6-3.8-2.9-5.6-4.4-.3-.2-.4-.9-.4-1.4 0-3.5-.1-7 .1-10.5.2-3.6-.7-4.7-4.3-4.5-1.4.1-2.8.6-4.2.5-2.7-.1-5.5 0-7.8-2.2-2.5-2.3-5.6-4-7.7-6.5-2-2.4-3.3-5.6-4.4-8.6-.8-2.1-1.7-4.5-.4-6.8.5-.9 1.2-2 2.1-2.4 2.5-1.2 2.6-2 1.3-4.6-1.3-2.6-2-5.5-2.8-8.3-2.9-9.6-3.9-19.4-2.6-29.4.6-4.7 1.2-9.6 2.7-14.1 1.7-5.4 4.5-10.4 9-14.1 4.7-3.8 9.2-7.9 14.3-11.1 3.9-2.5 8.4-4 12.7-6 3.4-1.6 6.9-2.4 10.6-3 7.4-1.3 14.6-.8 21.8 1.5 5.3 1.7 10.2 4.2 15.1 6.7 8.2 4.2 15 10.1 20.6 17.3 2.7 3.5 4.4 7.5 5.1 12 .5 6.7 1.6 13.2 2.5 19.2zm-100.9 31.6c-.4 4.1-.2 8.1 2.9 11.2 1.7 1.8 3.4 3.6 6.1 3.9 3.2.3 6.4 0 9.5-1.3 3.6-1.6 7.6-2.8 10-6.2 1.7-2.4 3-5.2 4.5-7.8 1.3-2.3 1.1-7.1-.6-8.9-1.3-1.4-2.6-2.8-4.2-3.8-2.1-1.3-4.5-2.6-6.9-3-2.8-.5-5.7-.4-8.6-.1-7.8.9-12.3 3.1-12.5 12.2 0 1.4-.1 2.6-.2 3.8zm85.8-.2h-.2c0-2 .1-4 0-6-.1-3.8-3.9-8-7.6-8.6l-3-.5c-6.6-1.2-13.1-1.5-18.6 3.4-3.4 3-6.5 6.9-3.2 12.6.5.9.9 1.9 1.5 2.8 1.4 2.1 2.5 4.7 4.4 6 5 3.3 10.3 6.1 16.6 5.6 4.3-.3 9.7-5.1 9.9-9.5.3-1.9.2-3.8.2-5.8zm-32.4 23.5c-.2-1.3 0-2.7-.5-3.8-1.4-3.5-3.2-6.8-4.5-10.3-1.1-3.1-3.6-3.7-6.3-3.9-2.3-.1-3.6 1.6-4.5 3.6-1.6 3.5-3.6 6.8-4.6 10.4-.8 3-1.2 6.4 1 9.2 1 1.3 2.3 2.9 4.2 2.3 1.3-.4 2.3-1.7 3.3-2.6.5-.4.8-.9 1.2-1.4.5.5 1.2.9 1.6 1.6 1.3 2.1 3.9 3.5 6 1.8 2.5-1.8 3.2-4.1 3.1-6.9z" id="deadluci"/></g></svg>