<svg xmlns="http://www.w3.org/2000/svg" width="200" height="200" viewBox="0 0 200 200"><style type="text/css">.st0{display:none;} .st1{fill:#FFFFFF;} .st2{display:inline;fill:#FFFFFF;} .st3{display:inline;}</style><g id="Dionysus"><path class="st1" d="M71.4 23.5l-3.3 2.6c-4.9 3.8-6.3 11-3.7 16.6 2.6 5.8 7.5 9.4 13 12.3 4.9 2.6 10.1 3.6 15.6 3.8 1.6.1 3.2.5 4.7 1 1.8.5 3 0 3.5-1.7 1-2.8 2.2-5.4 4.8-7.2 1.1-.8 1-2-.2-2.6-1.2-.6-2.7-.9-4-1.4-1.7-.6-3.5-1.1-5-2.2-.7-.5-.9-2.1-.9-3.2 0-.2 1.5-.6 2.3-.8 1.7-.3 3.4-.5 5.1-.5 1.6-.1 2-.9 1.8-2.3-.3-3.2.7-5.5 3.6-7.1 1.3-.7 2-2.2 3.1-3.4.4-.4.9-.7 1.4-1.1.3.5.7 1 .8 1.6.3 1.9.4 3.9.8 5.7.3 1.5 1.2 1.8 2.4.5 2.4-2.7 5.6-3.8 9.1-4.1 2.3-.2 4.6-.5 7.2-.8 0 .1.4.6.2.9-1.8 3.9-2 8.6-5.2 11.9-.9.9-2.1 1.5-3 2.3-.5.4-.8 1.1-.9 1.7 0 .2.8.6 1.3.8 2.3 1.1 4.7 2.1 7 3.1 0 .3-.1.4-.1.4-3 .4-5.1 2.2-7.1 4.4-1.5 1.7-3.6 1.5-5.5.7-1.8-.7-2.7-.2-3.2 1.5-.7 2-1.4 4-2.2 6-.2.4-1.3.9-1.6.7-1.4-.8-2.9-1.7-2.9-3.7l-.1-4.9c0-.4.1-.9 0-1.3-1-3.5-1-3.4 1.9-5.8l12.2-10.3c.2-.2.3-.4.2-1-1.6.9-3.4 1.7-4.9 2.8-3.8 2.9-7.5 5.9-11.2 8.8-.2.1-.5.3-.4.4.4 3.8-3.4 5.1-4.5 8-.9 2.5-.9 2.9 1.9 3.3.5.1.9.8 1.3 1.2-.5.3-1.1 1-1.5.9-2.6-.3-2.7-.3-2.8 2.4 0 .5-.1.9-.2 1.4-.2.1-.4.1-.7.2-.3-.9-.9-1.7-.9-2.6 0-1.6-.6-2.1-2.2-2.2-4.7-.4-9.5-.4-14-1.6-4.2-1.1-8.3-3.1-11.9-5.5-3.2-2.1-5.7-5.1-8.3-7.9-1-1.1-1.4-2.9-1.9-4.4-.4-1.3-.9-2.6-.8-4 .1-2 .2-4.1 1-5.9 1.3-3 2.6-6.3 6.1-7.8.8-.3 1.9-.4 2.8-.6zM101.3 169.5c1.6 0 3.3.1 4.9 0 1.5-.1 2.1.7 2.5 1.8.7 2-.5 6.1-2.3 7.4-1.4 1-3 2-4.6 2.3-5.3.8-9.1-5.6-7.9-10.1.1-.6 1.1-1.2 1.8-1.3 1.8-.2 3.7-.1 5.6-.1zM113.4 147.4c1.9 0 3.9-.1 5.8 0 .6 0 1.4.6 1.6 1 1.4 4.3-2.3 10-6.6 10.5-3.8.4-7.6-3-7.6-6.8 0-4.6 0-4.6 4.5-4.8.7.1 1.5.1 2.3.1zM101.4 82.3h4.1c2.7 0 3.5.7 3.3 3.4-.4 4.9-3 8.2-8.3 8-4.2-.2-8.1-6.2-6.4-10 .3-.7 1.3-1.3 2.1-1.4 1.7-.1 3.4 0 5.2 0zM125.1 82.4c1.8 0 3.6-.1 5.4.1.7.1 1.7.7 1.8 1.3 1 3.3-.9 7.3-3.8 9.2-4 2.6-9.9-1-10.5-5.2v-.2c-.5-4.8-.3-5.1 4.5-5.2.9-.1 1.8-.1 2.6 0zM121.3 98.9c.1 2.4-.9 3.6-3.1 3.6-3.6 0-7.1 0-10.7-.1-.3 0-.8-.6-.9-1-1.1-3.1.8-7.9 3.5-9.1 4.5-2 7.4-1.1 9.7 2.9.6 1.2 1 2.5 1.5 3.7zM101.4 126.3h5.6c1.2 0 1.8.6 1.9 1.8.1 6.3-3.3 10.4-10.2 8.7-1.9-.5-3.5-2-4-4.2-.3-1.4-.7-2.9-.8-4.3-.2-1.6.8-2.1 2.3-2.1 1.6.1 3.4.1 5.2.1zM89.7 147.3c1.6 0 3.3-.1 4.9.1.5.1 1.5.8 1.5 1.3 0 2.5.6 5.1-1.2 7.5-1.9 2.6-5.4 3.3-8.3 1.9-3.6-1.6-4-4.6-4.4-7.8-.2-2.2.7-3 2.8-3.1 1.6.1 3.2.1 4.7.1zM113.6 145.9c-1.6 0-3.3-.2-4.9 0-1.9.2-2.1-.7-2.2-2.2-.3-5.3 1.3-7 5.7-9.1 1.6-.8 5.8.9 7 2.7 1.3 2 2.2 4 1.8 6.6-.2 1.2-.5 1.9-1.8 1.8-1.9.1-3.8.1-5.6.2zM101.2 80.9c-1.5 0-3-.1-4.5 0-1.8.1-2.7-.7-2.8-2.4-.3-4.3 2.1-8.2 6.9-9 3.2-.5 6.9 2.5 7.4 5.6.1.6.3 1.2.5 1.8.7 2.4-.4 3.9-2.9 3.9-1.6.1-3.1.1-4.6.1zM101.1 168.1c-1.7 0-3.5.2-5.1-.1-.8-.1-2.1-1.1-2.1-1.5.4-2.3.7-4.6 1.8-6.6 2-3.9 8.9-3.8 11.1-.3 1.2 1.9 1.4 4.5 1.8 6.9.1.4-1.3 1.4-2.1 1.5-1.8.3-3.6.1-5.4.1zM77.3 82.3c1.8 0 3.6-.1 5.4 0 .5 0 1.5.5 1.5.8.1 2 .5 4.1-.1 5.9-.5 1.5-2.1 2.7-3.4 3.8-3.6 2.9-10.3-.7-10.4-6.2-.1-4.4-.2-4.4 4.1-4.4.9.1 1.9.1 2.9.1zM113.7 104.3c1.9 0 3.7-.1 5.6.1.6 0 1.5.7 1.6 1.1.8 4-1.6 8.1-5.3 9.7-3 1.4-8.5-1.5-9-5.1v-.4c-.4-5.5-.4-5.5 5-5.4h2.1zM125.1 81c-1.8 0-3.6.1-5.4-.1-.6 0-1.5-.7-1.6-1.1-.5-5.3 1-8.9 6.5-10.2 1.5-.4 5.7 1.5 6.3 3 .7 2 1.1 4.2 1.5 6.3.3 1.6-.7 2.1-2.2 2-1.7-.1-3.4 0-5.1.1zM101.3 124c-1.3 0-2.6-.1-3.9 0-3.7.2-4.2-.5-3.5-4.3 1-5.1 4.3-6.9 9.2-6.2 3.4.4 7 6.7 5.5 9.6-.3.6-1.4.9-2.2 1-1.6.1-3.3 0-5.1-.1zM137.1 104.4h5.6c1.1 0 1.7.4 1.5 1.5-.3 1.8-.5 3.7-1 5.5-.9 3.3-3.7 3.8-6.4 4-2.8.3-5.3-1.4-6.3-3.8-.8-2-.4-4.5-.4-6.7 0-.2.9-.5 1.4-.5 1.9-.1 3.7-.1 5.6 0zM77.4 80.8c-1.9 0-3.7.1-5.6-.1-.6-.1-1.5-.9-1.6-1.5-.3-5.5 1.4-8.6 6.5-9.6 1.9-.4 4.9 1.2 6.2 2.8 1.3 1.6 1.2 4.4 1.5 6.7.2 1.2-.6 1.8-1.9 1.8-1.7-.1-3.4 0-5.2 0 .1 0 .1-.1.1-.1zM125.3 126.3c1.9 0 3.7-.1 5.6 0 .5 0 1.4.6 1.5 1 .9 5.8-2.2 10.4-8.2 9.8-4.7-.5-7.2-5.3-6-10 .1-.4 1-.7 1.5-.8h5.6zM132.7 102.8c-2.8-.1-2.5-.1-2.8-3-.6-4.9 3.9-8.7 7.5-8.3 2.4.2 4.1 1.5 5.3 3.2 1.3 1.8 2 4.1 1.5 6.5-.1.5-.7 1.4-1.1 1.4-1.8.1-3.5 0-5.3 0-1.7-.1-3.4.1-5.1.2zM89.6 102.8c-1.4 0-2.7-.1-4.1 0-2.1.2-3-1.1-3.3-2.9-.5-3.1 2.1-7.3 5.2-8.4 2.7-1 7.1.7 8.3 3.7.7 1.9.4 4.3.3 6.5 0 .3-1 .8-1.6.9-1.6.2-3.2.1-4.8.2zM89.7 104.4c1.7 0 3.4-.1 5.2 0 .5 0 1.3.6 1.4.9.1 3.2.7 6.5-2.5 8.9-3.6 2.7-9.6.9-10.6-3.4-.3-1.4-.7-2.9-.8-4.3-.1-1.4.7-2.2 2.3-2.1 1.5 0 3.2-.1 5 0zM77.8 126.3c1.6 0 3.3-.1 4.9 0 .6 0 1.4.3 1.6.7 1.1 1.8-.3 7.5-2 8.9-3.7 3-9.7 1.2-11.1-3.4l-.1-.4c-1.4-5-.9-5.8 4.2-5.8h2.5zM89.5 145.8c-1.5 0-3-.1-4.5 0-1.8.1-2.6-1-3-2.4-.5-2.3 1.8-6.7 3.9-7.7 3.4-1.6 6.6-.8 8.9 1.7 2.2 2.4 1.2 5.1 1.2 7.7 0 .3-.9.8-1.4.8-1.6.1-3.3 0-5.1-.1zM125.3 124c-1.6 0-3.3-.1-4.9 0-2.1.2-2.2-.8-2.4-2.5-.4-4.9 3.2-8.4 8.2-8.1 2 .1 4.6 1.9 5.2 3.9.5 1.7.8 3.4 1.1 5.1.2 1.2-.4 1.7-1.6 1.6-.9-.1-1.9 0-2.8 0h-2.8zM77.5 124h-5.4c-1.3 0-1.9-.7-1.9-2.1.2-3.4 1.2-6.2 4.4-7.9 3.6-1.9 9.6.7 9.7 4.8.2 5.7 1.3 5.3-4.5 5.3-.7-.1-1.5-.1-2.3-.1zM144.7 89c-.2-.6-.5-1.2-.4-1.2 1.8-1.3 1.2-3.3 1.3-4.9.2-3 .4-6.1-1.5-8.7-1.4-1.8-3.1-3.7-5-4.8-5.5-3.1-11.4-5.1-17.7-5.6-1.2-.1-2.6-.2-3.1-2.4 1.7.1 3.3-.1 4.7.3 4.2 1.1 8.4 2.1 12.5 3.6 4.7 1.7 9 4.3 11 9.1 1.7 4 2.3 8.2.2 12.3-.3.8-1.1 1.4-2 2.3zM65.2 102.7c-1.7 0-3.4.1-5.1-.1-.6-.1-1.5-.7-1.6-1.2-1-3.7 1.6-8.5 5.1-9.8 3.4-1.2 8.3 1.6 9 5.3 1 5.2.4 5.8-4.8 5.8h-2.6zM65.7 104.3c1.8 0 3.6.1 5.4 0 1.3-.1 1.7.5 1.7 1.8.1 2.6 0 5.2-1.9 7.2-1.7 1.8-4.2 2.9-6.5 2.2-2.9-.8-5.2-2.8-5.8-6-.9-5-.7-5.1 4.3-5.2h2.8zM1.4 100.3c0-26.7 9.3-49.9 27.6-69 18.6-19.4 42.1-29.9 69-30.2 57.3-.6 102.1 44.1 101 101.6-1 52.4-43.9 97-100.5 96.2-53.5-.7-97.2-44.6-97.1-98.6zm192.7.1c.2-52.5-42-93.8-95.5-94.2-28.5 1.9-52.7 12.6-71 35.1-13.3 16.3-20.4 35.3-20.8 56.4-1.1 55.1 42.3 95.6 92.1 96.4 26.2.4 49.2-8.8 67.8-27.5 18.1-18.3 27.1-40.5 27.4-66.2z"/></g></svg>