<svg xmlns="http://www.w3.org/2000/svg" width="200" height="200" viewBox="0 0 200 200"><style type="text/css">.st0{display:none;} .st1{fill:#FFFFFF;} .st2{display:inline;fill:#FFFFFF;} .st3{display:inline;}</style><g id="Inanna"><path class="st1" d="M.9 99.3c0-26.7 9.3-49.9 27.6-69 18.6-19.4 42.1-29.9 69-30.2 57.2-.6 102.1 44.1 100.9 101.6-1 52.4-43.9 97-100.5 96.2-53.4-.7-97.1-44.6-97-98.6zm192.7.1c.2-52.5-42-93.8-95.5-94.2-28.5 1.9-52.7 12.6-71 35.1-13.3 16.3-20.4 35.3-20.8 56.4-1.1 55.1 42.3 95.6 92.1 96.4 26.2.4 49.2-8.8 67.8-27.5 18.1-18.3 27.1-40.5 27.4-66.2zM99 13.5c.7.7 1.4 1.2 1.6 1.8l3 11.1c1.4 4.7 3.1 9.3 4.5 13.9 1.1 3.5 2 7 3 10.5 1.3 4.6 2.6 9.3 4.1 13.8.2.5 1.4 1.1 1.9.9 1.9-.7 3.7-1.6 5.6-2.4l8.4-3.7c2.5-1.1 5-2.3 7.6-3.4 1.6-.7 3.2-1.2 4.8-1.8l.6.4-2.3 6c-1.5 3.6-3 7.3-4.6 10.9-1 2.2-2.1 4.4-3.1 6.7-.4.9-.9 1.8-1 2.8-.1.6.3 1.7.8 1.9 2.6 1 5.3 1.9 8.1 2.7l19.6 5.5c5.7 1.6 11.3 3.3 17 5 1.6.5 3.1.9 4.7 1.5.4.2 1 .8 1 1.2 0 .3-.6.9-1.1 1l-14.5 4.3-14.1 4.6-6.8 1.8c-3.6 1.1-7.2 2.3-10.8 3.5-.5.2-1 .3-1.5.3-2.2.2-2.8.8-2 3 .8 2.4 1.9 4.7 2.9 7l3.5 8.1 3.7 8.3c.2.6.2 1.2.5 2.5-1.3-.6-2-.9-2.8-1.2l-15.9-6.6c-2.3-1-4.7-1.8-7-2.7-2-.8-2.8-.3-3.4 1.7l-5.9 19.1c-1.9 6.5-3.8 13.1-5.7 19.7-.8 2.9-1.7 5.9-2.6 8.8-.2.6-.9 1.1-1.6 1.9-.8-2.5-1.4-4.5-2-6.5-1-3.7-1.9-7.5-3.1-11.1-1.5-4.7-3.2-9.3-4.7-13.9-.6-1.7-.9-3.4-1.4-5.1l-3.9-12.7c-.6-2.1-2-2.5-3.9-1.6-3.9 1.8-7.8 3.4-11.7 5-3.7 1.5-7.4 3.1-11.1 4.5-.6.2-1.3.2-2 .2.1-.7-.1-1.4.2-2 1.9-4.7 3.9-9.3 5.9-14 1.1-2.5 2.3-4.9 3.4-7.5.4-1 .7-2 .9-3 .2-1.1-.4-1.6-1.5-1.9-3.9-1.1-7.7-2.3-11.5-3.5l-10.9-3c-2.1-.6-4.1-1.4-6.2-2.1l-6.6-1.9c-4.9-1.5-9.8-3-15.1-4.6.6-.6.9-1.4 1.5-1.6 3.4-1.1 6.9-2 10.4-3l11.2-3.4 10.5-3c4.8-1.5 9.6-3 14.5-4.5l1.2-.4c2.8-.8 3.2-1.9 1.9-4.6-2.2-4.5-4.2-9.1-6.2-13.7-1.2-2.6-2.4-5.2-3.5-7.8-.3-.8-.5-1.7-.8-3 1.9.6 3.2 1 4.4 1.5 3.5 1.5 7 3.2 10.5 4.8 2.5 1.1 5.1 1.9 7.7 3 1.3.5 2.5 1.2 3.8 1.9 1.2.7 2.1.2 2.4-.9l2.8-9.7 3.5-11.1c.7-2.2 1.1-4.5 1.7-6.8 1-3.4 2.1-6.7 3.2-10 1.4-4.3 2.8-8.6 4.3-13.4zm.6 102c9.9-.4 17-8.1 16.8-17.1-.2-9.1-7.3-16.9-17.8-16.6-8.4.2-16.8 7.4-16 18.2.8 8.8 7.2 15.1 17 15.5z"/></g></svg>