<svg xmlns="http://www.w3.org/2000/svg" width="200" height="200" viewBox="0 0 200 200"><style type="text/css">.st0{display:none;} .st1{fill:#FFFFFF;} .st2{display:inline;fill:#FFFFFF;} .st3{display:inline;}</style><g id="Minerva"><path class="st1" d="M1.2 100.3c0-26.7 9.3-49.9 27.6-69 18.7-19.4 42.2-29.9 69-30.2 57.2-.6 102.1 44.1 101 101.6-1 52.4-43.9 97-100.5 96.2-53.6-.7-97.2-44.6-97.1-98.6zm192.6.1c.2-52.5-42-93.8-95.5-94.2-28.5 1.9-52.7 12.6-71 35.1-13.2 16.3-20.3 35.3-20.8 56.4-1.1 55.1 42.3 95.6 92.1 96.4 26.2.4 49.2-8.8 67.8-27.5 18.2-18.3 27.1-40.5 27.4-66.2zM123.8 129.9c-1.5-1.1-2.7-1.9-3.9-2.8-1.7-1.2-3.7-.2-4 1.9-.4 3.1.2 6.1 1.2 9 1.9 5.8-1.6 7.9-6 9.2-2.9.9-5.8 1.4-8.7 2.1-.5.1-1 .3-1.5.2-5.3-.9-10.7-1.3-15.3-4.5-2.5-1.7-3-4.1-1.9-6.9.8-2.2 1.4-4.5 2-6.7.3-1-2-4.9-2.9-4.7-1.2.3-2.7 1-3.3 2-1.1 1.8-1.2 1.6-3 .8-2.8-1.1-2.2-3.1-2.3-5-.2-4.3.9-8.3 2.2-12.4 1.2-3.8 3.1-7.1 5.6-10.1 1.7-2.1 3.1-2.3 5.8-1.7 2.8.6 5.7 1 8.6 1.3 1.3.1 2.5-.1 3.1 1.6.3.8 1.1 1.3 2.2.4s2.5-1.6 3.8-1.9c2.8-.7 5.8-1 8.6-1.5 2.5-.5 4.7.5 6 2.8 1.6 2.7 3.4 5.2 4.7 8 .9 1.9 1.3 4.1 1.5 6.2.3 2.8.2 5.6.2 8.4-.1 3.2-.2 3.3-2.7 4.3zM74 81.5c-.6 4.4.2 8.5 2.4 12.3.3.5.4 1.3.2 1.9-.9 2.9-1.7 5.8-2.8 8.6-.3.7-1.3 1.3-2.1 1.7-3.1 1.7-6.8 1.2-9.3-1-3.9-3.3-6.7-7.4-9.2-11.8-3.3-5.9-6.2-12-8.1-18.6-.7-2.6-1.3-5.3-2.6-7.6-.7-1.4-2.5-2.3-4-3.3-3.5-2.5-7.1-4.8-10.5-7.4-1.8-1.4-2-2.6-.6-4.3l10.5-12.5c1.3-1.5 2.7-2.9 4.1-4.3 1.5-1.5 2.9-1.6 4.2.1 4.8 6 9.8 11.8 14.3 18 3.3 4.6 5.7 9.8 8.5 14.7 1.5 2.8 3 5.7 4.2 8.6.5 1.6.5 3.3.8 4.9zM132.9 106.9h-.6c-3.7-.2-5.1-1.4-5.9-4.8-.4-2-.8-4-1.6-5.8-.5-1.3-.4-2 .2-3.2 2-3.9 3-8.1 2.6-12.6-.2-2.2.1-4.4 1.2-6.6 3.1-6.1 6.3-12.1 10.1-17.7 4-5.9 8.2-11.6 12.4-17.3 1.1-1.5 2.8-2.7 4.4-3.9.5-.3 1.7-.2 2.2.1 5.4 4.4 10 9.7 13.9 15.5l1.7 2.4c1.3 1.8 1.1 2.9-.6 4.1-3.9 2.6-7.6 5.5-11.7 7.6-2.5 1.2-2.9 2.8-3.6 5.1-1.2 4.3-2.9 8.5-4.6 12.7-1.8 4.2-3.6 8.4-5.9 12.2-2.8 4.6-5.6 9.3-10.7 11.8-1 .5-2.2.5-3.3.7-.2-.2-.2-.3-.2-.3zM96.9 99.2c-2.7-.2-5.3 0-7.7-.6-4-1.1-7.7-2.7-10.6-6-1.2-1.4-2.1-2.7-2.1-4.7-.1-4.1-.8-8.3 0-12.4 1.1-5.4 3-10.1 8.1-13.4 3.3-2.1 6.7-3.9 10.4-4.6 3.5-.7 7.3-.4 10.9.1 4.9.7 9 3.3 12.7 6.5 1.5 1.4 2.9 3.2 3.7 5.1 2.2 4.9 2.8 10.1 2.7 15.4-.1 4.6-2.3 7.8-5.7 10.4-3.8 2.8-8.3 3.8-12.9 4.1-.7.1-2.1-.6-2.2-1.2-.3-1.6 1-1.9 2.3-1.7 6 .7 10.4-1.8 13.9-6.5 2.7-3.7 3.6-12.5-1.5-16.2-2.7-2-5.3-2.4-8.2-2-3 .4-4.7 2.9-6.3 5.2-1.4 2-2.5 4.2-3.9 6.7-.5-.7-1.1-1.5-1.6-2.3-1.8-3-3.4-6.2-6.5-8.3-3.7-2.5-8.4-2-11.2 1.3-2.2 2.5-4.1 5.3-3.2 9 1.3 5.3 3.3 10.2 9.1 12.1 2 .7 4.3 1.1 6.4 1.1 2-.2 3 .3 3.4 2.9zM100.1 187.7h-10.8c-2.1 0-2.8-1.2-2.1-3.3.8-2.4 1.6-4.8 2.3-7.2.5-1.8.9-3.6 1.2-5.4l1.5-8.4c.8-3.6 1.6-7.2 2.6-10.7.2-.5 1.5-.9 2.4-1 1.9-.2 3.9.1 5.8-.2 1.7-.2 3.1.6 3.4 2.3 1.2 5.8 2.5 11.5 3.8 17.3.4 1.9.7 3.8 1.1 5.6.6 2.7 1.4 5.4 1.8 8.1.3 1.7-.3 2.9-2.4 2.8-3.4 0-7 .1-10.6.1zM128.2 183.8c-3.4.9-6.3 2-9.3 2.5-3 .5-3.8-.5-4.4-3.6-1.1-5.6-2.5-11.1-3.7-16.7-.6-2.8-1.1-5.6-1.7-8.3-.2-.8-.4-1.6-.7-2.4-1.1-2.8-.4-4.3 2.4-5.2l2.4-.9c.7-.3 1.5-.5 2.6-.9-.4 1.8-.6 3.1-.8 4.3-.5 3.3 1.2 6 4 7.9 1.2.8 1.6 2.9 2.2 4.5l4.8 12.3c.6 2 1.3 4 2.2 6.5zM72.6 183.6c.2-.8.2-1.4.4-2 1.2-3 2.4-5.9 3.7-8.8l3.4-7.9.6-2.1c.3-.7.5-1.7 1-2 3.8-2.3 4.6-5.7 4-9.7-.1-.8.1-1.6.2-2.4l2 .9.2.1c1.7.8 4.4.3 4.2 3.3-.1 2-.6 3.9-.9 5.9-.1.5-.3 1-.4 1.4l-2.5 10.5c-.6 2.8-1 5.6-1.6 8.3-.4 2.2-.8 4.5-1.3 6.6-.1.4-.8.8-1.2.8-1.8-.1-3.6-.3-5.3-.7-2-.5-4.1-1.4-6.5-2.2zM121.3 83.2c-1.1 2-2.1 4.5-3.7 6.7-1.6 2.3-3.8 3.7-6.8 4-1.2.1-2.4.4-3.6.8-1.6.5-2.4-.2-3-1.6-.4-.9-.8-1.8-1.4-2.6-.9-1.2-1.4-2.3-.6-3.9l1.7-5.8c1.5-3.4 4-6.1 7.4-7.4 1.3-.5 3.5.1 4.7 1 3 1.8 4.6 4.8 5.3 8.8zm-12.4 3c2.5 0 5.3-2.3 5.5-4.4 0-.6-.8-1.7-1.4-1.9-1.4-.5-6.6 2-7.1 3.4-.2.6.3 1.8.8 2.3.6.4 1.6.4 2.2.6zM95.3 94.9c-4.2-1-9.3-.7-12.2-5.2-1.5-2.3-3-5-3.2-7.7-.5-5.6 6.8-10.4 11.7-7.7 1.6.9 2.7 2.9 3.9 4.6 2 2.8 3.4 5.9 3.3 9.4 0 .7-.4 1.3-.8 2-.8 1.4-1.7 2.9-2.7 4.6zm-8-15.5c-.3 1.1-1.1 2.2-.8 2.9 1.2 3.2 3.2 4.3 6.6 3.5.7-.2 1.8-1 1.8-1.6 0-.8-.7-1.9-1.4-2.3-1.8-.9-3.8-1.5-6.2-2.5zM75.8 147.7c.7 1.4.9 2 1.3 2.5 1.1 1.7.5 3.1-1.5 3.8-.6.2-1.6 1-1.5 1.3.6 3.2-1.7 5.2-2.8 7.7-1.6 3.6-3.4 7.1-5.1 10.6-.9 1.8-1.9 3.6-2.9 5.5-.1.2-.3.5-.4.5-1.3-.4-2.7-.7-3.8-1.4-.5-.3-.9-1.8-.6-2.3 2.6-4.3 5.3-8.5 8-12.8l5-8.4c1.3-2.2 2.7-4.4 4.3-7zM125.5 148.3c3.1 5.1 6.1 9.9 9 14.8l6.2 10.3c.3.5.7.9 1 1.3 1.1 1.7.7 3.2-1.2 3.9-.6.3-1.2.6-2.3 1.1-.6-.8-1.3-1.7-1.8-2.7-2.6-5.3-5.1-10.6-7.7-15.8-.6-1.2-1.3-2.2-2-3.3-.2-.3-.4-.8-.3-.9 1.1-1.8-.1-2.5-1.5-3-1.7-.6-1.4-1.9-1.4-3.2.2-1.5.7-2.4 2-2.5zM68.9 182.5c-.9-.3-2.4-.8-3.7-1.5-.3-.2-.4-1.5-.1-2.1 1.6-3.4 3.3-6.7 5-10 1.6-3 3.4-6 4.9-9 .9-1.8 1.9-.8 2.8-.3 1 .5 1.8 1.2 1.1 2.7-1.4 3.1-2.4 6.4-3.7 9.6-1 2.5-2.1 5-3.2 7.5-.2.5-.6 1-.6 1.6.1 1.5-.7 1.7-2.5 1.5zM176.5 92.3c2.5 3.4 4.9 6.4 7 9.6.5.7.1 2.3-.3 3.2-1 2.1-2.2 4-3.4 6-.4.6-1.1 1-1.8 1.6-2.1-3.5-4.1-6.6-5.9-9.8-.4-.8-.5-2.1-.1-2.9 1.3-2.6 2.9-4.9 4.5-7.7zM22.4 112.9c-2.1-3.4-3.8-6.3-5.5-9.3-.2-.3.2-1.1.5-1.5 2-2.9 3.9-5.7 6-8.6.3-.4.9-.8 1.4-.8.4 0 .7.7 1 1.2 1.1 2.1 2.2 4.1 3.2 6.2.2.5.5 1.3.2 1.7-2.1 3.6-4.3 7.1-6.8 11.1zM121.5 160.9c.7-.6 1.4-1.3 2.2-1.6 1-.4 2-.7 2.6 1 1.3 3.2 3 6.2 4.6 9.3 1.5 3.1 3.1 6.1 4.5 9.3.6 1.2.5 2.3-1.4 2.6-1.3.1-2.8 1.3-3.7.9-.9-.4-1.3-2.2-1.8-3.4-1.3-3.2-2.5-6.4-3.8-9.5-.9-3-2-5.8-3.2-8.6zM129.8 140.4c-1.7-2.4-2.9-4.3-4.2-6.2-1 2.1-1 2.1 1.5 5.6-2 3.4-4.1 6.5-5.7 9.9-.7 1.6-1.1 3.2-2.5 4.5-.2.2.4 1.3.5 2 .1.4.1.9.1 1.3-.4-.1-.9-.2-1.2-.5-1.6-1.9-1.7-4-.9-6.2.3-.9.7-1.8.7-2.7.1-4 2-7.3 3.6-10.8.3-.6.5-1.2.5-1.8.2-2.2 2.8-5.1 4.9-5.4 1.8-.3 1.9 1.4 2.3 2.3 1.3 2.5.9 5 .4 8zM80.5 157.4c1.8-1.5 1.3-2.7.2-4.5-2.4-3.7-4.3-7.7-6.3-11.6-.4-.8 0-2 .1-3 0-.2.5-.4.6-.6.3-1 .8-2.8.6-2.9-1.7-.8-1.3 1-1.9 1.7-.6.8-1.5 1.4-2.3 2.1-.3-1.2-.8-2.3-.8-3.5 0-1.1.4-2.3.9-3.3.7-1.1 1.3-1.9 3.2-.8 2.9 1.6 3.1 4.4 4.3 6.8.3.6.7 1.2 1 1.9 2.2 5.1 3.4 10.3 3 15.9-.1 1.8-.7 2.1-2.6 1.8zM22.3 75.4c2.5 1.2 5 2.3 7.4 3.4 1 .5 1.5 1 .4 2.2-1.7 2-3.1 4.4-4.6 6.6-.7.9-1.5 1.7-2.9 1.2-1.8-.7-3.7-1-5.4-1.7-1.9-.7-2.1-1.5-.9-3.1l6-8.6zM169.7 79.3c2.7-1.2 5.4-2.4 8.5-3.7 1.3 1.6 2.7 3.4 4.2 5.2.8 1 1.6 2.1 2.3 3.2.9 1.3.7 2.5-.9 3.1-1.5.6-3.1 1-4.7 1.6-2 .7-3.3-.4-4.3-1.9-1.5-2.3-3.1-4.6-5.1-7.5zM30.2 121.6c-1.3-1.5-2.4-2.7-3.5-4-2.9-3.3-2.9-3.3-.8-6.7 1.3-2 2.5-4.1 3.7-6.1.7-1.2 1.8-1.3 2.6-.2 1.2 1.6 2.5 3.2 3.6 4.9.3.5.3 1.5.1 2-1.7 3.2-3.6 6.3-5.7 10.1zM164.6 110.2c1.8-2.3 3.4-4.5 5.4-7 1.8 3 3.3 5.5 4.8 8.1.7 1.2 2.2 2.7 1.9 3.5-.7 1.8-2.2 3.4-3.5 4.9-2 2.1-2.6 1.8-3.9-.9-1.5-3.1-3.2-5.8-4.7-8.6zM168.8 77.1c-.8-.5-1.5-.8-1.9-1.4-1.7-2.1-3.1-4.3-4.9-6.4-.8-1-.7-1.6.3-2.2 1.7-1.1 3.4-2.3 5.2-3.1.6-.3 2 .2 2.6.8 2 2.2 3.8 4.5 5.5 6.9.3.4.3 1.8 0 1.9-2.1 1.2-4.3 2.3-6.8 3.5zM39.6 68.1c-2.1 2.7-3.9 5.2-6 7.5-.5.6-1.8 1.2-2.4 1-2.2-.8-4.2-1.9-6.3-3-.3-.1-.4-1.2-.2-1.5 2-2.7 4.1-5.4 6.3-7.9.4-.4 1.7-.6 2.3-.3 2.1 1.2 4.1 2.7 6.3 4.2zM163.6 111.7c1.9 3.5 3.4 6.6 5.1 9.6 1 1.8-.6 2.6-1.5 3.5-.8.9-2 1.4-2.9 2.2-1 1-1.8.5-2.3-.3-1.5-2.8-2.9-5.6-4.3-8.5-.2-.4.1-1.3.5-1.7 1.7-1.6 3.4-3 5.4-4.8zM156 118.8c1.6 3.2 3 6.1 4.4 9 .6 1.2.4 2.2-.8 2.9l-4.3 3c-1.3.9-1.9-.2-2.3-1-1.1-2.5-2.2-5-3.1-7.6-.4-1.1-.4-2.1 1-2.8 1.7-.8 3.1-2.1 5.1-3.5zM45.7 119.2c1.8 1.3 3.7 2.3 4.9 3.8.6.8.1 2.6-.3 3.9-.6 2-1.4 4-2.4 5.9-.3.6-1.5 1.3-1.8 1.1-2-1.1-3.9-2.4-5.7-3.9-.4-.3-.5-1.4-.3-2 1.2-2.5 2.5-5 3.8-7.4.3-.5 1-.8 1.8-1.4zM169.7 98.4c-1.1-1.6-2.1-2.9-3-4.3l-.4-1c-2.3-2.1-1.8-4.4-.7-6.9.5-1.1.7-2.3 1.2-3.3.4-.7 1-1.3 1.6-1.9 2.1 2.8 3.9 5.1 5.6 7.6.4.6.6 1.7.3 2.3-1.2 2.4-2.7 4.6-4.6 7.5zM38 127.9c-.8-.5-1.6-.9-2.4-1.5-1.2-1-2.6-1.9-3.3-3.1-.4-.7.3-2.1.7-3.1.9-2.2 2-4.3 3.1-6.4.4-.8 1.1-1.3 1.8-2 1.4 1.4 2.5 2.8 3.8 3.9 1.6 1.3 1.1 2.7.4 4.2-1.2 2.5-2.5 5-4.1 8zM32.8 80.6c1.2 2.9 2.2 5.3 3.2 7.7.9 2.1-1.1 3.4-1.6 5-.4 1.2-1.5 2.2-2 3.4-.6 1.5-1.8 1.1-2.1.5-1.3-2.4-2.4-4.9-3.2-7.5-.2-.8.6-2 1.2-2.9 1.3-2 2.9-4 4.5-6.2zM151.5 134.8c-.7.6-1.4 1.2-2.2 1.8l-1 .2c-2.5 1.1-3.9.4-4.5-2.3-.5-2-1.3-3.9-1.8-5.8-.3-1.2 0-2.2 1.6-2.4 1-.1 1.9-1 2.9-1.2.6-.1 1.7.1 1.8.5 1 2.6 1.9 5.3 2.8 8 .1.3.1.6.1.9l.3.3zM54.5 137.2l-3-.5c-1.8-.4-2.2-1.4-1.5-3.2.7-1.9 1.3-3.8 1.8-5.7.8-3 1.5-3.3 4.2-1.9.5.3 1.2.2 1.6.6.6.6 1.3 1.5 1.2 2.1-.5 2.5-1.1 5-2 7.4-.3.7-1.4 1.1-2.1 1.7l-.2-.5zM18.5 69.1c1.5-3.1 2.8-5.9 4.1-8.7.6-1.2 1-2.7 2.8-1.9.9.4 1.8 1.1 2.6 1.7 1.5 1.1 2 2 .4 3.7-1.9 2.1-3.5 4.5-5.3 6.7-.4.5-1.5.8-2 .6-.9-.4-1.6-1.2-2.6-2.1zM37.7 86c-1-2.1-2.1-4.1-2.8-6.2-.5-1.3 0-2.4 1.1-3.6 1.6-1.8 2.9-4 4.4-6.2 3.6 5.8 2.5 12.5-2.7 16zM38 107.2c-.7-.6-1.4-1-2-1.6-1.1-1.2-2.1-2.5-3-3.8-.4-.6-.7-1.7-.4-2.3 1-2 2.3-3.8 3.4-5.7.6-1.1 1.4-1.2 2-.3 1.1 1.5 2.3 3.1 2.9 4.8.4 1-.2 2.5-.6 3.7-.4 1.5-1.3 3.1-2.3 5.2zM157.6 78.4c.6-2.2 1.1-4.3 1.9-6.3.4-.9 1.4-1.6 2.3-.3 1.2 1.7 2.7 3.3 3.6 5.2.5 1.2.2 2.8-.1 4.2-.3 1.4-.9 2.7-1.6 3.9-.2.4-1.8.5-2 .3-1.4-2-2.6-4-3.8-6.1-.2-.3-.2-.7-.3-.9zM163.4 92.1c1.6 2.6 3 4.8 4.3 7.1.3.5.4 1.5.1 2-1.3 2-2.8 3.9-4.5 6.2-1.6-2.9-3.1-5.2-4.2-7.8-.3-.7.7-2.1 1.2-3 1-1.4 2-2.7 3.1-4.5zM14.1 88.9c2.5.8 4.4 1.6 6.5 2.2 1.6.4 1.5 1.5.8 2.4-1.5 2.2-3.1 4.3-4.9 6.2-.7.8-2 1-3.1 1.4-.3-.8-.7-1.7-.7-2.5 0-2.3.1-4.6.4-6.9.1-.9.6-1.7 1-2.8zM43.1 96.9c-1.5-2.8-3.2-5.1-3.7-7.6-.3-1.5 1.5-3.3 2.3-5l.8-1.5c.3-.4.8-1.2 1.1-1.1.6.1 1.3.5 1.5 1.1.6 1.3.9 2.8 1.6 3.9 1.1 1.7.7 2.9-.3 4.4-1 1.6-1.9 3.5-3.3 5.8zM181.5 69.6c-.5.5-1 1.5-1.9 1.8-.6.2-1.8-.3-2.3-.8-1.9-2.3-3.7-4.6-5.4-7.1-.6-.9-.8-2 .6-2.7.8-.5 1.4-1.5 2.2-1.8.7-.3 2.1-.3 2.3.1 1.5 2.6 2.7 5.2 3.9 7.9.4.5.4 1.3.6 2.6zM157.2 81.4c1.4 2.4 2.8 4.6 4 6.9.4.7.4 1.9 0 2.6-.8 1.7-2 3.3-3 4.9-4.7-1.3-5.6-9.8-1-14.4zM161.7 107.9c0 1.7-3.8 6.1-4.9 6.1-.5 0-1.2-.5-1.5-1-.6-.9-.9-1.9-1.4-2.8-1.2-2.1-.9-3.8 1-5.3l.8-1c2.5-2.6 3.4-2.3 4.7 1.2.3 1.1.9 2.1 1.3 2.8zM44.2 115.3c-2.1-2.2-3.8-4.1-5.6-6 1.5-2.9 2.8-5.3 4.4-8.2 1.9 2.2 3.4 4 4.8 5.9.3.4.3 1.2.1 1.6-1 2.1-2.2 4-3.7 6.7zM178.5 91.6c2.4-.8 4.5-1.6 6.7-2.3.4-.1 1.5.5 1.5.8.4 3.3.8 6.7.8 10 0 1.6-1.5 1.4-2.3.5-1.4-1.6-2.7-3.4-4-5.1-.9-1.2-1.7-2.5-2.7-3.9zM147.9 98.3l2.1-3.9.8-1.5c.3-.5.8-1.4 1-1.3.6.1 1.4.5 1.7 1 .9 1.4 1.8 2.9 2.3 4.5.3.8.1 2-.3 2.8-.6 1.2-1.7 2-2.5 3.1-1.1 1.7-2.2 1.4-3-.1-.7-1.4-1.3-2.9-2.1-4.6zM48.6 90.5c1.5 2.7 2.8 4.8 3.9 7 .2.4.1 1.1-.1 1.5l-1.9 4.2c-.5 1.1-1.7 1.3-2.5.3-1-1.2-2-2.4-2.7-3.8-.4-.7-.4-1.8-.1-2.5.9-2 2-4 3.4-6.7zM61.2 128.2c2.9-.5 5.7-1 8.4-1.5.4-.1 1.1.1 1.3.3.2.4.3 1.2.1 1.6-.6 1.2-1.3 2.5-2.3 3.5-.5.5-1.6.6-2.4.7-1.9 0-3.9-.3-5.2 1.6-.5.7-.8 1.5-1.4 2.1-.2.2-.8.2-1.2 0-.1 0-.2-.7-.1-.9 1-2.6 2-5.2 2.8-7.4zM130.3 127c2.9.2 5.6.4 8.4.7.4 0 1 .6 1.2 1.1.8 2.2 1.4 4.4 2 6.7.1.3-.3.8-.5 1.2-.3-.2-.7-.4-.9-.7-1.2-2.4-3-3.4-5.8-3.3-3.1.2-5.2-2.9-4.4-5.7zM50.4 109c.3.5.4 1.2.8 1.5 4 3.3 4.2 4.1 1.8 8.7-.2.5-1.8.6-2.5.3-1.3-.6-2.4-1.5-3.4-2.5-.4-.4-.7-1.4-.5-1.9.9-2 2-3.8 3-5.7l.8-.4zM148.9 120.6c-1.1-2.4-2.2-4.2-2.8-6.2-.2-.5.7-1.5 1.3-2.1 1-1 2.1-1.7 3.4-2.8 1.9 1.6 3 3.7 3.4 6.3 0 .3 0 .8-.2 1-1.7 1.2-3.3 2.4-5.1 3.8zM65.3 125h-1.7c-1.2 0-1.5-.6-1.2-1.7.4-1.3.8-2.6 1.3-3.8.1-.3.4-.7.7-.7 2.1-.2 4.2-.4 6.2-.3 1.3.1 1.1 4.1-.3 5-1.5.9-3.1 1.3-4.7 2-.2-.1-.2-.3-.3-.5zM130 118.1c2.1.3 3.4.5 4.8.6 2.3.2 4.4 3.7 3.3 5.8-.1.2-.4.5-.6.5-2.4.3-5.1.5-6.7-1.3-1-1.3-.6-3.6-.8-5.6zM61.8 117.9c-.4 1.6-.8 3.2-1.2 4.9-.1.3-.2.5-.4.7-.9.8-4.4.2-5.5-1.3-.4-.6.1-2 .2-2.9.1-.5.5-1 .6-1.6.6-2.1 2-2.6 3.8-1.4.8.4 1.6.9 2.5 1.6zM144.1 115.2c.8 1.8 1.6 3.5 2.2 5.3.2.5-.5 1.7-1.1 2-1.3.6-3.7 1.6-3.9 1.2-1-1.4-1.5-3.2-1.8-5-.4-2 2.1-1.4 2.8-2.6.2-.5 1.1-.6 1.8-.9zM53.9 100.3c1.5 1.4 2.9 2.8 4.2 4.1 0 0 .1.1.1.2-.8 2-1.6 4-2.5 5.9-.1.1-.5.2-.8.1-2.2-.7-3.9-4.4-2.9-6.4.6-1.2 1.1-2.3 1.9-3.9zM146.7 100.7c.9 1.6 2 3.2 2.8 4.8.3.5.2 1.6-.2 2-1.3 1.2-2.8 2.3-4.2 3.4-3.1-5-2.6-7.3 1.6-10.2zM135.8 115.7c-4.9.9-7.7-1.9-6.5-6.5 6.1.2 5.7-.1 6.5 6.5zM66.6 109.6h5.5c-.2 1-.5 1.6-.5 2.3-.3 2.4-1.3 3.6-3.8 4-.9.1-1.9-.1-2.9-.2.2-1 .4-2 .7-3 .2-1 .6-2 1-3.1zM136.7 110.8c0-1.8 2.8-4.1 4.1-3.7.3.1.6.2.7.4.5 1.5 1.6 3.2 1.3 4.5-.2 1.1-2.1 2-3.4 2.7-1.4.8-1.7-.7-2.1-1.4l-.6-2.5zM57.8 111.7c.6-1.6 1.2-3 1.8-4.3.1-.3.5-.5.8-.5 1.2 0 3.4 2.5 3.3 3.8l-.1.4c-.4 4.3-1 4.6-4.6 2.2-.6-.3-.8-1-1.2-1.6zM75.4 108c.2-4.2 1.8-7.7 3-11.7 1.2.7 2.2 1.2 3.1 1.9.3.3.4 1.4.2 1.7-1.9 2.6-3.9 5.1-6.3 8.1zM100.5 101.3c-1-2.1-1.9-3.9-2.8-5.8.4-1 .8-2.1 1.4-3.1.3-.5.9-.9 1.5-1 .3-.1.8.6 1 1.1 1.7 3.1 1.7 3.7-1.1 8.8zM122.3 96.3c1 3.1 1.9 6 2.7 9 .1.5-.3 1.1-.5 1.7-.3-.4-.7-.8-.9-1.2-1.3-1.8-2.5-3.8-4-5.4-1.3-1.3-1.1-2 .4-2.7.6-.3 1.2-.8 2.3-1.4zM118.9 137.7c-.7-3-1.3-5.4-1.8-7.9-.1-.2.4-.8.7-.9.6-.1 1.4-.1 1.8.3 1.7 1.2 2 4.6.8 6.3-.4.6-.8 1.1-1.5 2.2zM68.9 136.2c-2.2 1.3-4.3 2.4-6.3 3.6-.9-1.4-.6-3.1.9-4.3 2-1.7 2.7-1.7 5.4.7zM15.3 80.6c.1-.9 0-1.8.2-2.6.3-1.2.6-2.3 1.1-3.4.3-.7 1-1.7 1.6-1.8.6-.1 1.5.7 2 1.3.2.3-.3 1.2-.6 1.7l-3.4 5.1-.9-.3zM138.2 139.8c-1.4-.8-2.2-1.2-2.9-1.8-.9-.6-1.7-1.3-2.4-2.2-.1-.1.8-1.5 1.1-1.5 1.2.2 2.8.5 3.5 1.3.7.9.5 2.5.7 4.2zM184.3 80.6c-1.3-1.9-2.7-3.9-4.2-6.2.7-.4 1.5-.9 2.4-1.4.5.8 1 1.7 1.4 2.6.4.9.8 1.8 1.1 2.7.2.7 0 1.4 0 2.2-.3 0-.5.1-.7.1zM81.3 136.9c-1.1-1.5-1.4-6.3-.4-7.4.3-.4 1-.5 1.5-.5.3 0 .8.5.8.8.1 2.5.1 5.1-1.9 7.1z"/></g></svg>