<svg xmlns="http://www.w3.org/2000/svg" width="200" height="200" viewBox="0 0 200 200"><style type="text/css">.st0{display:none;} .st1{fill:#FFFFFF;} .st2{display:inline;fill:#FFFFFF;} .st3{display:inline;}</style><path class="st1" d="M2.8 100.3c0-26.7 9.3-49.9 27.6-69 18.6-19.4 42.1-29.9 69-30.2 57.2-.6 102.1 44.1 100.9 101.6-1 52.4-43.9 97-100.5 96.2-53.5-.7-97.2-44.6-97-98.6zm192.6.1c.2-52.5-42-93.8-95.5-94.2-28.4 1.9-52.6 12.6-70.9 35-13.4 16.4-20.5 35.4-20.9 56.5-1.1 55.1 42.3 95.6 92.1 96.4 26.2.4 49.2-8.8 67.8-27.5 18.2-18.3 27.1-40.5 27.4-66.2z" id="no_god"/></svg>