<svg xmlns="http://www.w3.org/2000/svg" width="200" height="200" viewBox="0 0 200 200"><style type="text/css">.st0{display:none;} .st1{fill:#FFFFFF;} .st2{display:inline;fill:#FFFFFF;} .st3{display:inline;}</style><g id="Sakhmet"><path class="st1" d="M111.4 144.5c-1.4 1.9-2.5 1.1-3.6.2-3.2-2.7-6.2-5.6-9.7-7.8-2.6-1.6-5.8-2.3-8.8-3.4-3.2-1.1-6.4-2.4-9.7-3.2-2.9-.8-5.9-1.3-8.2-3.4-1.4-1.3-2.6-2.7-3.7-4.2-1.1-1.6-2-3.3-2.7-5-.8-2.2-1.6-4.6-2-6.9-.7-4.3-1.4-8.5-1.7-12.9-.1-1.9.7-3.9 1-5.8.1-.9-.1-1.9-.1-3-.4.2-.6.2-.6.3-.8 5.4-2.5 10.8-1.4 16.3 1 4.8 1.1 9.7 3.1 14.3 1.5 3.3 2.6 6.7 5.7 8.9 2 1.4 4.3 2.3 6.5 3.4.3.2.7.3 1.6.6-.9.3-1.3.6-1.7.7-3.2.5-6.5.5-9.4 1.6-5.8 2.2-11.2 5-14.1 11.3-2.5 5.6-3.4 11.4-2.3 17.3.5 2.9 2.1 5.7 3.4 9.3-1.7-.9-3.2-1.4-4.3-2.3-4.2-3.7-8.3-7.6-12.4-11.5-4-3.8-7.3-8.3-10.1-13.1-3.2-5.5-6-11.2-8.1-17.3-4-11.3-5.6-22.8-4.7-34.7.3-4 1.2-8 2-12 .8-3.8 1.9-7.6 3-11.3.8-2.5 1.7-5.1 3-7.4 2.7-5 5.7-9.8 8.7-14.7 1.7-2.8 3.9-5.1 7.6-5.2 1.4 0 2.4.1 2.6 1.8.4 3.4 2.3 6.1 4.4 8.7 2.8 3.4 5.8 6.6 8.9 9.7 2.7 2.6 5.7 4.9 8.5 7.4l.8-.8c-1.6-1.8-3.2-3.6-4.9-5.4-4.5-4.9-9.1-9.7-13.3-14.9-1.5-1.8-2.4-4.4-2.8-6.7-.2-1.4 1-3.1 1.7-4.6.3-.7 1-1.3 1.3-1.8 1-.2 1.9-.6 2.9-.6 3.2.1 6.5-.1 9.6.5 3.1.6 6.1 1.9 9.1 3.2 1.3.6 2.5 1.7 3.6 2.7 2.4 2.3 4.8 4.5 6.9 7 3.3 4.1 4.7 10.1 1.1 14.6-.9 1.1-1.6 2.4-2.7 3.9 2.4-.5 3.8-2 5-3.5 1.7-2.1 1.8-4.6 1.8-7.3-.1-6.9-4.3-11-9.3-14.8-2.1-1.6-4.2-3.5-6.5-4.6-3.1-1.5-6.5-2.4-9.8-3.4-.9-.3-1.8-.5-2.7-.7-1.7-.4-3.3-.9-4.8.5-.4.3-1.1.3-1.6.3-.2 0-.6-.3-.6-.4 0-.3.2-.7.4-.9 4.7-2.4 9.3-3.6 14.7-1.8 4.7 1.6 9.3 3.2 13.6 5.5 2.5 1.3 4.6 3.3 6.8 5 .9.7 1.9 1.4 2.9 2.2-.2-2-3-4.9-7.9-8.2 2.4-.6 4.2-1.4 6.1-1.4 2.9 0 5.8.8 8.7.9 4.9.3 9.7.9 14.4 2.5 5.8 2 11.8 3.5 17.6 5.6 3.8 1.4 7.2 3.7 10.9 5.4l7.8 3.4c2.1.9 4.3 1.8 6.2 3 .8.5 1.3 1.7 1.7 2.7 2.5 7.7 5.7 14.6 13.1 19.1 6.2 3.8 12.2 8.2 17.2 13.7.7.8 1.3 1.7 1.6 2.7.2.6 0 1.3 0 2-.7-.1-1.7.2-2.1-.2-1.6-1.5-3.3-2.6-5.5-3-.9-.2-1.8-.6-2.7-.5-2.4.3-3.6-.7-4-3.1-.1-.8-.7-1.6-1.2-2.8-1.7 2.1-1.4 4-.5 5.5 1.6 2.8 3.6 5.4 5.4 8.1 1.8 2.7 3.2 5.5 2.4 8.9-.7 2.8-2.4 3.8-5 2.6-2.8-1.3-5.6-2.9-8.5-4-2.4-1-5-1.8-7.5-2.4-3.6-.7-6.7.6-9.9 2.2-7.2 3.5-12.8 8.9-17.8 14.9-1.2 1.5-2 3.6-2.3 5.6-.5 4.8-.2 9.6 2.4 14l5.2 9.4c.6 1.1 1.5 1.9 2.4 2.8.9 1 .7 2-.1 2.8-3.3 3.2-6.9 6-11.3 7.3-2.8.8-5.6.9-8.1-.6-.8-.5-1.5-1.9-1.6-2.9-.4-4.6-.6-9.3-.9-13.9.2-.5.1-1-.1-2zm30.8-70l.4-.6c-.9-1-1.9-1.8-2.6-2.9-.8-1.1-1.8-2.6-1.6-3.7.1-1.1 1.2-2.1-.1-3.2-.9-.7-1.9-1.6-3-1.9l-9.2-1.6c-5.1-1.2-10.2-2.5-15.1-4.2-2.7-1-5-3-7.5-4.5l-2.9-1.7-.5.5c.3.6.4 1.3.9 1.7 1.7 1.5 3.5 3 5.4 4.2 2 1.2 4.2 2 6.2 3.1 2.2 1.1 4.5 2.2 6.5 3.5 1.7 1.1 3.5 2.4 4.5 4 1.4 2.5 3.3 4.5 5.7 5.8 2.1 1.1 4.5 2 7.1.7 1.1-.5 2.7.2 4.1.4.7.1 1.2.3 1.7.4zm-10.8-17.2c-.3-.7-.4-1-.5-1.3-1.5-3.7-4.9-5.6-7.7-8-.3-.3-1.5-.1-1.7.1-.3.5-.4 1.6 0 2 2.6 2.6 5.2 5 7.9 7.4.4.3 1.3-.1 2-.2zm10.3 24.8l.5.6c.4-.2 1-.2 1.3-.5l4.7-3.9c1.4-1.2 2.7-2.7 4.9-1.1.7.5 2 .2 3.1.3l.1-.7c-2.2-.9-4.4-2.9-6.8-1.6-3.1 1.6-6.1 3.6-7.8 6.9zm5.4 1.9c.7-.3 1.3-.5 1.9-.8 2.8-1.6 5.6-3.3 9.1-1.9.5.2 1.3-.1 2.2-.2-3.5-3.6-7-2.4-10.3-.7-1.2.7-3.5.9-2.9 3.6zM156.1 117.6c.6-3.1 1.2-6.3 1.8-9.7 1.4.6 2.8 1.1 4 1.8.4.2.7 1.3.4 1.6-1.7 2.3-3.6 4.6-5.4 6.9-.2-.3-.5-.4-.8-.6zM130.1 145.8c2.2-.6 4-1.2 5.9-1.7.5-.1 1.5 0 1.7.3.3.4.1 1.2-.2 1.8-.6 1.2-1.4 2.4-2.2 3.6-.8 1.2-1.8 1.1-2.5.1-1-1.3-1.8-2.8-2.7-4.1zM133.3 70.7c-.6.3-1.4 1-1.9.9-.9-.3-1.8-1-2.5-1.8-.4-.5-.6-1.2-.7-1.9-.1-.8-.4-1.8 0-2.5.2-.4 1.6-.6 2.1-.3.6.4 1.1 1.4 1.1 2.2-.1 2-.2 2 1.9 3.4zM175.4 102.7c-.4-.9 1.1-2.9 1.8-4.7.4-.9-1-1.6-.1-2.4 1.6 1 3.5 1.8 3.9 3.9.3 1.2-3.1 3.6-5.6 3.2zM1.3 100.3c0-26.7 9.3-49.9 27.6-69 18.6-19.4 42.1-29.9 69-30.2 57.2-.6 102.1 44.1 101 101.6-1 52.4-43.9 97-100.5 96.2-53.6-.7-97.2-44.6-97.1-98.6zm192.7.1c.2-52.5-42-93.8-95.5-94.2-28.5 1.9-52.7 12.6-71 35-13.3 16.4-20.4 35.4-20.8 56.5-1.1 55.1 42.3 95.6 92.1 96.4 26.2.4 49.2-8.8 67.8-27.5 18.1-18.3 27.1-40.5 27.4-66.2z"/></g></svg>