<?xml version="1.0" encoding="utf-8"?>
<!-- Generator: Adobe Illustrator 18.1.1, SVG Export Plug-In . SVG Version: 6.00 Build 0)  -->
<!DOCTYPE svg PUBLIC "-//W3C//DTD SVG 1.1//EN" "http://www.w3.org/Graphics/SVG/1.1/DTD/svg11.dtd">
<svg version="1.1" id="Layer_1" xmlns="http://www.w3.org/2000/svg" xmlns:xlink="http://www.w3.org/1999/xlink" x="0px" y="0px"
	 width="200px" height="200px" viewBox="0 -28 200 200" style="enable-background:new 0 -28 200 200;" xml:space="preserve">
<style type="text/css">
	.st0{fill:#FFFFFF;}
</style>
<g id="TheMorrigan">
	<g id="skull">
		<path class="st0" d="M98.8,49.5c-0.5,1.8-1.2,3.5-1.3,5.4c-0.2,2-0.9,3.4-2.2,4.9c-0.9,1-1.4,2.6-1.8,4c-0.6,1.8-0.8,3.7-1.3,5.6
			c-0.5,1.7-2.3,2.5-4,1.5c-3.6-2-7.3-3.9-10.4-6.5c-3.5-2.9-7.4-4.7-11.5-6.2c-3.2-1.2-6.2-2.8-9.5-3.4c-3.2-0.7-5.8-2.2-8.1-4.2
			c-2.6-2.3-4.9-5-5.8-8.6c-0.4-1.7-1.2-3.4-1.1-5c0.1-1.9,0.8-3.9,1.6-5.7c2.2-4.7,4.7-9.3,7-14c1.6-3.3,4.6-5.3,7.5-7
			c4.9-2.7,9.8-5.5,15.1-7.4c6.8-2.5,13.8-4.5,21.2-4.3c2.6,0.1,5.1,0.1,7.7,0c7.2,0,14.1,1.3,20.8,3.6c7.2,2.4,14,5.7,20.1,10.3
			c2.8,2.1,4.7,5.1,6.7,8c2.8,4.2,4.1,8.9,5.8,13.5c1.2,3.3,0.6,6.6-0.9,9.8c-1.7,3.6-4.3,6.4-7.5,8.5c-2.4,1.6-5.3,2.2-8,3.3
			c-5.8,2.6-12.3,3.3-17.3,7.6c-2,1.7-4.2,3.2-6.4,4.7c-1.7,1.2-3.5,2.2-5.4,3.1c-2,0.9-4.9-1-4.8-3.2c0-3-1.1-5.6-2.5-8.2
			c-1.1-2.1-1.6-4.6-2.4-7c-0.3-1-0.4-2-0.6-3C99.4,49.6,99.1,49.5,98.8,49.5z M108,97.7c3.3,2.1,6.6,1.9,9.9,1.7
			c0.6,0,1.4,0.1,1.7,0.5c1.3,1.5,2.8,1.4,4.5,1.1c1.1-0.2,2.4,0,3.5,0.4c1.4,0.5,2.4,0.7,3.8-0.1c0.9-0.5,2.3-0.5,3.4-0.4
			c1.9,0.3,3.5,0.4,4.6-1.6c0.3-0.6,1.5-0.9,2.4-1c1-0.1,2.1,0.1,3.2,0.1c2.1-0.1,2.8-1.3,2-3.2c-0.2-0.6-0.3-1.2-0.5-2
			c2.3,0,4.4-0.1,6.5,0.1c0.4,0,1.1,1,1.2,1.5c0.8,4.1,0.4,7.9-1.9,11.6c-2.2,3.4-4.3,6.7-7.5,9.3c-2.7,2.1-6.7,2.6-9.9,1.7
			c-2.9-0.8-6.2-0.7-9.2-0.6c-0.8,0-1.9,1.8-2,2.9c-0.3,3-0.3,6-0.2,8.9c0.1,1.5,0.1,2.4-1.8,2.5c-1.7,0.1-2.7,1.3-3.2,3
			c-0.1,0.5-0.3,1.1-0.4,1.5c-1.8-0.8-3.7-2.3-5.2-2s-2.7,2.3-4.3,3.7c-0.5-0.8-1.2-1.5-1.7-2.4c-0.8-1.3-2-2-3.4-1.5
			c-1.1,0.5-2.3,1.4-2.9,2.4c-0.9,1.6-1.3,1.8-2.5,0.3l-0.4-0.7c-0.9-1.2-2-2.6-3.6-2.1c-1.1,0.4-2,1.7-2.9,2.6
			c-0.4,0.4-0.8,0.9-1.3,1.1c-0.2,0.1-0.8-0.4-1-0.8c-2.1-3.7-4.7-3.9-7.3-0.3c-0.5-0.5-1.1-1-1.3-1.6c-0.7-1.8-2-2.7-3.8-3.4
			c-0.5-0.2-0.9-1.2-0.9-1.8c-0.1-1.9,0.2-3.9,0-5.8s-0.8-3.7-1.4-5.5c-0.2-0.6-1.4-1.1-2.1-1.1c-3.3-0.1-6.5-0.3-9.9,0.9
			c-4.4,1.6-8.1-0.5-11-3.9c-3.2-3.9-6.5-7.8-7-13.1c-0.2-2.4,0.3-4.8,0.5-7.2c2.6-0.2,4.9-0.4,7.4-0.6c-0.1,0.4-0.2,1.1-0.4,1.6
			c-1.3,2.5-0.4,4.1,2.5,4.1c0.8,0,1.6,0,2.3-0.1c1.2-0.1,2.1-0.1,2.6,1.4c0.5,1.7,2.2,1.7,3.6,1.3c1.6-0.4,2.9-0.5,4.4,0.5
			c0.9,0.5,2.4,0,3.6-0.1l4.2-0.3c0.8-0.1,2.1,0.3,2.5-0.2c2.1-2.3,4.9-0.7,7.2-1.5c1.9-0.6,4-0.8,6.4-1.2c-0.6,2.6-1.1,5.2-1.7,7.9
			l-0.6,2.7c-0.8,2.9-1.4,5.8-2.3,8.7c-0.6,1.8,0.9,4.8,2.8,5.4c4.8,1.6,9.8,1.7,14.7,1.1c2.3-0.3,5.3-0.2,7.2-2.5
			c1.2-1.4,1.2-2.8,0.7-4.4c-0.8-2.9-1.6-5.9-2.3-8.8c-0.6-2.7-1.1-5.4-1.5-8.1C107.6,99.4,107.9,98.6,108,97.7L108,97.7z
			 M134.5,67.1c3.5,0.1,6.3,2.2,7.1,5.8c0.6,2.7,1.1,5.5,1.4,8.3c0.4,2.8-1.3,4.9-3.3,6.3c-2.9,2-6.2,3.5-9.3,5.2
			c-0.3,0.2-0.9,0.2-1.3,0.1c-2.9-0.6-5.8-1.2-8.6-2c-2.6-0.8-5.2-1.8-7.6-3c-3.1-1.5-3.6-7-1-9.3c3.5-3.1,7.5-5.6,11.8-7.5
			c2.6-1.2,5.2-2.3,7.9-3.4C132.4,67.2,133.5,67.3,134.5,67.1L134.5,67.1z M63.5,66.8c2.5,0.9,4.9,2,7.4,2.6c3.9,1,7.1,3.5,10.4,5.6
			c2.3,1.5,5,2.6,6.1,5.5c0.6,1.5-0.3,5.3-1.3,6.5c-1.8,2.2-4.5,2.4-6.8,3.2c-3,1.1-6.2,2-9.3,2.4c-1.9,0.2-4.1-0.3-5.8-1.2
			c-2.3-1.2-4.2-3.2-6.3-4.7c-3.7-2.5-3.7-6-2.9-9.7c0.5-2,1.3-4,2.2-5.9c1.2-2.6,3-4.5,6.3-3.9C63.4,67.1,63.5,67,63.5,66.8
			L63.5,66.8z M106.4,116.3c-1.1,0.1-1.9,0.1-2.7,0.2h-6.6c-1.6-0.1-3.2-0.2-4.8-0.4c0.1-2.2,0.1-4.4,0.3-6.5
			c0.1-1.3,0.6-2.6,0.8-3.9c0.5-3.8,1.3-7.4,3.8-10.5c1.2-1.5,2.5-1.4,3.5,0s1.8,2.9,2.3,4.4c0.9,3,1.6,6.1,2.2,9.2
			C105.7,111.2,106,113.6,106.4,116.3z M103.5,134.7c2.7,1.4,3.3,4.1,4.1,6.5c0.4,1.2,0,2.3-1.7,2.2l-3,0.1c-2.7,0-3.4-0.7-2.6-3.2
			C101.1,138.4,100.7,135.8,103.5,134.7z M93.7,134.7c4.2,1.2,4.1,4.3,3.8,7.3c0,0.6-0.9,1.2-1.5,1.6c-0.5,0.3-1.3,0.1-1.9,0.1
			c-3.4-0.1-4.4-1.8-2.9-4.9C91.9,137.3,92.9,135.9,93.7,134.7L93.7,134.7z M77.2,143.8c-2.3-2.7-3.5-5.7-3-9.1
			c0.1-0.6,0.8-1.5,1.3-1.5c0.8,0,2.1,0.4,2.4,1c0.7,1.6,1.2,3.3,1.5,5.1C79.7,141.6,79.6,141.8,77.2,143.8z M124.1,136.8
			c-0.8,2-1.4,4-2.3,6c-0.2,0.3-1.7,0.5-2,0.2c-1.4-1.4-2-2.9-0.8-4.9c0.7-1.2,0.8-2.7,1.5-4c0.3-0.6,1.4-1.1,1.9-1s0.8,1.2,1.1,1.9
			c0.2,0.5,0.2,1.1,0.2,1.7C123.8,136.7,123.9,136.8,124.1,136.8z M88.2,142.1c-1.9,0-3.6,0.1-5.3,0c-0.4,0-0.9-0.6-1-1.1
			c-0.4-2.5,0.6-4.5,2.4-6.2c0.3-0.2,1.2-0.2,1.4,0C87.2,137,88.5,139.2,88.2,142.1z M113.4,134.4c2.1,1.8,2.5,4,2.3,6.2
			c-0.2,2.7-2.4,1.5-3.8,1.7s-1.8-0.7-1.8-2C110.2,137.7,111.3,135.8,113.4,134.4z"/>
	</g>
	<path class="st0" d="M98.7-21.8c51.7,0,93.7,42,93.7,93.8s-41.9,93.8-93.7,93.8S5,123.8,5,72S46.9-21.8,98.7-21.8 M98.7-26.8
		C44.3-26.8,0,17.5,0,72s44.3,98.8,98.7,98.8s98.7-44.3,98.7-98.8S153.1-26.8,98.7-26.8z"/>
</g>
</svg>
