<svg xmlns="http://www.w3.org/2000/svg" width="200" height="200" viewBox="0 0 200 200"><style type="text/css">.st0{display:none;} .st1{display:inline;} .st2{fill:#FFFFFF;} .st3{display:inline;fill:#FFFFFF;}</style><g id="unknow"><path class="st2" d="M1.2 100.3c0-26.7 9.3-49.9 27.6-69 18.7-19.4 42.2-29.9 69-30.2 57.2-.6 102.1 44.1 101 101.6-1 52.4-43.9 97-100.5 96.2-53.6-.7-97.2-44.6-97.1-98.6zm192.6.1c.2-52.5-42-93.8-95.5-94.2-28.5 1.9-52.7 12.6-71 35.1-13.2 16.3-20.3 35.3-20.8 56.4-1.1 55.1 42.3 95.6 92.1 96.4 26.2.4 49.2-8.8 67.8-27.5 18.2-18.3 27.1-40.5 27.4-66.2zM106.9 187.2c-1.6 0-3.3.1-4.9-.1-.6-.1-1.6-.9-1.6-1.4 0-2.3.2-4.6.4-6.8.1-1.3.7-2.1 2.2-2.1 5.2.1 9.2-2.7 12.9-5.6 5-4 9.9-8.3 14.3-13 3.2-3.5 5.7-7.7 8.3-11.7 2.3-3.6 4.3-7.4 6.1-11.3 1.3-2.8 2-5.8 3-8.8.7-2 1.4-3.9 2-6 .6-2.1 1.1-4.3 1.6-6.4.5-1.9 1.1-3.8 1.3-5.8.8-7.4 1.4-14.9 2-22.4.2-3 0-6 0-9 .2-7.2-1.8-13.8-4-20.6-1.6-4.8-4.1-9-7.1-12.8-4.1-5.1-9.4-8.9-15.6-11.1-3.1-1.1-6.2-2.4-9.4-3.3-2.7-.8-5.5-1.3-8.3-1.8-2.6-.5-5.2-.6-7.8-1.2-.7-.1-1.6-1.1-1.6-1.7-.2-3.1-.2-6.1-.1-9.2 0-.5 1.1-1.4 1.7-1.3 4.3.3 8.5.7 12.8 1.3 3.1.4 6.2 1 9.1 1.9 4.2 1.3 8.3 2.8 12.2 4.6 4.2 2 8.3 4.4 12.3 6.8 6 3.6 11.1 8.2 15.7 13.4 3.6 4.1 7.2 8.4 10.2 12.9 2.3 3.5 3.9 7.6 5.6 11.5 1.2 2.7 2.3 5.4 3.2 8.2.7 2.1 1.4 4.2 1.7 6.3.8 4.5 1.7 9 2 13.5.3 4.3-.2 8.7-.3 13 0 .6-.1 1.3-.2 1.9-.1 4.8-.8 9.4-2.5 14-1.2 3.2-1.6 6.7-3 9.8-2.1 4.8-4.7 9.3-7.3 13.9-1.6 2.7-3.3 5.4-5.3 7.7-3.1 3.7-6.3 7.3-9.9 10.5-4 3.6-8.3 6.9-12.8 9.9-3.7 2.4-7.8 4.1-11.8 5.8-4.2 1.7-8.4 3.5-12.8 4.6-4.7 1.2-9.5 1.6-14.3 2.3.1-.1.1-.3 0-.4zM98.6 57.7c-.3-1-.6-2-.8-3h-.6c-1 3.5.5 7.1.2 10.8 2.5-.7 2.1 1.1 2.1 2.4v47.900000000000006c0 .8-.1 1.5-.2 2.7-3.6-2.2-6.5-5.6-11.3-2.6-.8-2.8-1.4-5.2-2-7.5-3.3 4.4-4.4 8.8-2.6 11.3.2-1 .4-1.8.6-2.6.5-1.8 1.5-2.1 3.1-1.3.8.4 1.8.9 2.6.8 3.7-.4 6.1 2.1 8.9 3.8.4.3.9 1 .9 1.5.1 2.9 0 5.9 0 8.8 0 1.2-.6 1.5-1.7 1.7-2.5.4-5.1.6-7.5 1.5-3.4 1.3-5.6 3.9-7.6 7-2.6 4.2-2.4 8.9-3.7 13.4-.1.5.2 1.3.6 1.6.5.3 1.3.4 1.9.2 2.6-1 5-2.5 7.7-3.1 3-.7 6.2-.8 9.3-1 .3 0 1 1.1 1 1.6.1 5.2.1 10.4.1 15.7v5.2c0 2.4-.3 2.8-2.6 2.2-1.9-.4-3.9-.9-5.6-1.9-3.1-1.8-6.2-3.8-8.9-6.1-3.3-2.8-6.5-5.8-9.4-9-4.8-5.4-9.3-11-12.7-17.5-4-7.6-6.6-15.7-8.9-23.8-3.6-12.6-4.6-25.5-4.9-38.5-.1-4.9.5-9.6 1.5-14.2 1.4-6.6 3.8-13 7.6-18.9 3.4-5.2 7.9-9.2 13.2-12.1 2.7-1.4 5.5-2.5 8.4-3.5 4.3-1.4 8.7-2.7 13.1-3.6 2.6-.5 5.3-.4 7.9-.5 1.5-.1 1.3 1.1 1.3 1.9v17.2c0 3.1 0 6.2-.1 9.2 0 .7-.2 1.5-.3 2.2-.2.1-.4.1-.6.1zm-38.2 27.9c1.6 0 3 .1 4.3 0l14-1.3c2.4-.2 4.9 0 7.3 0 .6 0 1.6-.3 1.6-.6.1-.7 0-1.7-.4-2.1-1.6-1.8-3.3-3.6-5.2-5-1.1-.8-2.7-1.2-4.1-1-1.9.1-3.9.7-5.6 1.4-4.4 1.9-8.7 4-11.9 8.6zm28.5-23.3l-.4-.4-1.8.9c-2.1 1.1-4.1 2.6-6.4 3.2-3.4.9-7 1.1-10.4 1.6-1.5.2-3.2.3-4.5 1-2.3 1.3-4.5 2.9-6.6 4.5-.5.4-.5 1.4-.8 2.1l.7.5c4.2-4.9 9.8-6.5 15.7-6.5 4.9 0 8.8-2.2 12.7-4.6.8-.5 1.2-1.5 1.8-2.3zm1.5 26.2l.7.1c3.8-3.4 1.6-12.7-1.8-15.4-.3-.3-1-.1-1.6-.2.6 1.2 1.1 2.1 1.5 3 .6 1.3 1 2.6 1.7 3.8.9 1.7.8 3.1 0 4.8-.4 1.2-.3 2.6-.5 3.9zm-1.4-41.8l-.2-.8c-2.8-1.1-11 1.4-13.9 4.7 5.1-1.4 9.6-2.7 14.1-3.9zM127.8 120.2c.1.8.4 1.3.3 1.7-2.7 7.6-5.1 15.5-10.6 21.7-3.6 4.1-7.8 7.4-13.6 7.8-2.5.2-3.3-.2-3.3-2.6-.1-4.6.1-9.1.1-13.7 0-1.8.7-2.4 2.4-2.7 5.8-1 11.4-2.8 16.3-6.3 2.1-1.5 4.1-3.3 6.2-4.9.5-.4 1.2-.6 2.2-1zM139.6 85.7c-4.4-.8-8.6-1.9-12.9-2.2-4.3-.3-8.6.3-13 .5 3.3-5.5 8.8-8.2 16.6-7.4 3.5.4 8.7 5.4 9.3 9.1zM139.6 68.6l-1.7.3c-4.3.4-8.7.7-13 1-1.3.1-2.6.2-3.9.1-.3 0-.7-.4-1-.6.2-.4.4-.9.8-1.1.4-.2 1-.3 1.5-.3 5-.2 10-.3 15-.4.8 0 1.6.3 2.4.4-.1.2-.1.4-.1.6zM116.4 110.3c-.1 1-.2 1.8-.3 2.6h-.5v-5.9c1.2 1 2.2 1.9 3.7 3.1-1.3.1-2 .1-2.9.2zM106.9 117.9l-5.2 2.7-.4-.8c1.7-.9 3.4-1.8 5.1-2.8.2.4.4.7.5.9zM128 117.2c3-.7 4.1.2 3.6 2.3-1.1-.7-2.2-1.4-3.6-2.3z"/></g></svg>