<svg xmlns="http://www.w3.org/2000/svg" width="200" height="200" viewBox="0 0 200 200"><style type="text/css">.st0{display:none;} .st1{display:inline;} .st2{fill:#FFFFFF;} .st3{display:inline;fill:#FFFFFF;} .st4{fill:#FFFFFF;stroke:#FFFFFF;stroke-width:0.25;stroke-miterlimit:10;} .st5{fill:#FFFFFF;stroke:#FFFFFF;stroke-width:0.25;stroke-linecap:round;stroke-linejoin:round;stroke-miterlimit:10;} .st6{fill:none;stroke:#FFFFFF;stroke-linecap:round;stroke-linejoin:round;stroke-miterlimit:10;} .st7{fill:#FFFFFF;stroke:#FFFFFF;stroke-linecap:round;stroke-linejoin:round;stroke-miterlimit:10;}</style><g id="luci" class="st0"><path class="st3" d="M1.2 100.3c0-26.7 9.3-49.9 27.6-69 18.7-19.4 42.2-29.9 69-30.2 57.2-.6 102.1 44.1 101 101.6-1 52.4-43.9 97-100.5 96.2-53.6-.7-97.2-44.6-97.1-98.6zm192.6.1c.2-52.5-42-93.8-95.5-94.2-28.5 1.9-52.7 12.6-71 35.1-13.2 16.3-20.3 35.3-20.8 56.4-1.1 55.1 42.3 95.6 92.1 96.4 26.2.4 49.2-8.8 67.8-27.5 18.2-18.3 27.1-40.5 27.4-66.2z"/><g class="st1"><path class="st2" d="M99.5 66.4l-31.9 24 11.8 37.1h39.4l11.8-37.4zM100 12.3c-48.5 0-87.8 39.3-87.8 87.8s39.3 87.8 87.8 87.8 87.7-39.3 87.7-87.8c.1-48.6-39.2-87.8-87.7-87.8zm18.8 115.2l-19.7 58.5-19.6-58.5-59.9-1.4 48.1-35.8-19-59.1 50.9 35.1 50.3-35.1-19.2 58.8 49.2 35.6-61.1 1.9z"/></g></g><g id="Faust_Act"><path class="st2" d="M1.2 100.3c0-26.7 9.3-49.9 27.6-69 18.7-19.4 42.2-29.9 69-30.2 57.2-.6 102.1 44.1 101 101.6-1 52.4-43.9 97-100.5 96.2-53.6-.7-97.2-44.6-97.1-98.6zm192.6.1c.2-52.5-42-93.8-95.5-94.2-28.5 1.9-52.7 12.6-71 35.1-13.2 16.3-20.3 35.3-20.8 56.4-1.1 55.1 42.3 95.6 92.1 96.4 26.2.4 49.2-8.8 67.8-27.5 18.2-18.3 27.1-40.5 27.4-66.2z"/><path class="st4" d="M97.3 91.8c-.9-3.7-.1-8.5.2-9.8-.6 1.9-4.3 8.1-7.2 11.8-3.1 4-4 7.7-6 13.3-2 5.6-1.7 8.6-1.5 11.1.2 2.5 1.9 7.7 1.9 7.7s-.3-.6-1.4-2.9c-1.1-2.4-2.2-8.8-1.4-11.7.6-2.5.6-5.2.5-6 0 .6-.1 2.3-1.2 4.2-1.4 2.4-1.2.9-5 5.8-3.8 4.9-2.8 10.9-2.7 12.7.1 1.2 1.8 4.6 2.9 6.6.4.6.7 1.1.8 1.4 0 0-.3-.6-.8-1.4-1.2-2.1-3.6-5.6-4.1-7.3-.7-2.2.1-5.9.1-5.9-2.1 2.8-2.4 6.3-2.4 6.3-.7-1.4-1.2-1.3-1.2-1.3.4.1.9 1.7 1.3 4 .4 2.4 1.8 5.8 1.8 5.8-.8-1.1-2.4-2.5-3.7-4.3l-1.7-5.2s0 1.7.2 5.6c.2 3.9 4.2 9 4.2 9l-2.1-2.1-2.2-2.9c1.3 4.8 6.2 10.3 6.2 10.3s-1.9-.9-4.3-2.9-3.9-1.6-3.9-1.6c1-.1 2.7 1.2 3 1.6.3.3 3.4 2.8 3.4 2.8s-.7-.2-3.5-1.5-4.5-4.2-4.5-4.2c.6 2.6 3.5 4.5 5.4 5.5 1.9 1 4.5 2.6 4.5 2.6l-12.7 12.7s-5.2 5.3-7.8 9.1c-2.6 3.7 2.1 1 2.5.7 2.8-2 3.9-3.2 8.1-7.3l12.5-12.7s22.5-27.2 25.8-31.4c4.6-5.9.7-.2.7-.2l-24.5 32.7c1.4.8 2.2 2.2 4.5 4.7s4.3 3 5 3.2l3.9-.3c-2.1.1-3.5-.7-5.5-2.4-1.9-1.7-4-4.1-4-4.1 2.5 1.7 6.4 1.2 7.1 1.1.7-.1 4.1-.9 6.3-.7 2.2.2 4.4 3.3 4.5 3.1.1-.2-.3-.6-2.1-2.6-1.8-2.1-6.5-1.9-6.5-1.9 4.6-1.4 7.3-4.9 8.3-5.8.9-.9 2.3-2.2 2.3-2.2-.2 0-1.6 1.1-1.6 1.1.6-.6 3.2-3.6 4.7-5.3 1.5-1.7 9.3-13.9 10.5-15.6l3.8-3.7c-1.1 0-4.4 2.6-4.4 2.6 4.2-3.7 4.5-5.2 5.2-7 .7-1.8 2.7-7 3.6-9"/><path class="st4" d="M118.7 118.4c2-2.8 4.7-10.3 5.8-14 1.1-3.7 4.5-9.6 4.5-9.6-1.4.7-5.6 6-5.6 6 .2-.3 3-4.5 4.9-6.3 1.9-1.8 3.1-6.4 3.7-8.7s.6-2.5 1.7-3.6c1.2-1.1 2.3-4.7 2.3-4.7-.8 1.2-2.4 2.5-4.5 3.9s-4.9 3.7-4.9 3.7c.6-1.7 4.5-5 8.1-7.6 3.6-2.6 4.6-6.3 4.8-7.5.1-1.2-.3-3.6.2-5 .6-1.4.3-5.9.3-7.3s-.1-5.2-.6-6.9c-.4-1.7-.6-4.5-.5-5.1.2-.6-.1-1.3-.4-1.9-.3-.6.4-4.2.4-4.2-1.5 2.8-1.2 9.1-.2 16.4l-1.4 9.5c2.6-7-.9-16.3-1.5-17.8s-2.1-7.2-1.8-9.6c.3-2.4-.1-5.1-.6-6.1s-1.7-4.6-2.6-6.2c-1-1.6-3.6-4.1-5.6-5-2-1-2.9.2-2.9.2.3-.3 1.3-.3 2.5.3s4.4 4.8 5.2 7c.8 2.2-.8 6.9-1.1 7.7-.3.8-1.2 3.7-.8 6 .5 2.3-1.6 4.3-2.9 4.9-1.3.6-5 1.3-9.4 4.1-4.3 2.8-4.8 9.4-4.8 9.4-.1-2-.9-3.9-2.1-6.6s-1.4-8.9-1.4-10.2.3-5 1.7-6.9c1.3-1.9.9-4.3.5-5.4v-2.1c-1.1.5-1.2 2-.9 3s-.2 2.7-.6 3.9c-.3 1.2-.3 1-2.3 5.3-2 4.3-.8 10.7-.4 11.8s.8 5.2 1 8.2c.2 3-4.5 9.1-5.3 10.1s-2 5-2.2 3.9c-.2-1.1.2-6.1 2.3-8.5 1.5-1.8 3.2-6 3.8-7.5-.8 1.7-4.2 5.9-6.8 8.2-2.8 2.5-3.9 6.5-4.5 9-.7 2.5.3 4.3-.5 10.5-.7 5.1-.2 8.4-.1 9.4 0 .1 0 .2.1.3 0 0 0-.1-.1-.3-.2-1.1-.5-3-.8-6.6-.3-4-.5-10.4-.5-10.4-.5.9-1.6 4.9-1.2 6.3.3 1.4.5 2.2 0 3.7s-.9 4.5-1 5.9c-.1 1.4.2 2.2-.9 4.8-1.1 2.5-.5 8.1-.5 8.1-1-3.4-.1-6.1.4-10.4.6-4.3-1.9-9-1.9-9 1.7 7.4.3 11.4-1.2 14.5m47-28.1c3.9-2 5.8-7.2 5.8-7.2.2 6-5.8 7.2-5.8 7.2zM119 31.3s-1.5 2.5-1.5 4.1c0 1.6-.1 2.6-.3 3.3-.2.7.4 2.1.6 3.2.3 1.1.3 1.3.3 1.3s.1-2.4.7-3.4.8-3.3.6-4.4c-.2-1.2-1.1-3.4-.4-4.1zM144.6 47.9s-.3-1.9-.8-3.8c-.6-1.8.6-1.5.8-3.5.2-2 .8-3.8.4-4.4s2.2 3.8 1.5 5.8-2 5-1.9 5.9zM100.9 52.6s-1.7 4 .4 5.6c0 0 0-.6.6-1.5.5-1 .3-1.2-.3-2.2s-1-1.4-.7-1.9zM139.4 30.4s0-2.1-.5-2.8c-.5-.7.1-1.6 0-1.9-.1-.3-.9-2.2-.6-3.1 0 0 1.6 2.2 1.6 3.5s.2 3.1-.5 4.3z"/></g></svg>