<svg xmlns="http://www.w3.org/2000/svg" width="200" height="200" viewBox="0 0 200 200"><style type="text/css">.st0{display:none;} .st1{display:inline;} .st2{fill:#FFFFFF;} .st3{display:inline;fill:#FFFFFF;} .st4{fill:#FFFFFF;stroke:#FFFFFF;stroke-width:0.25;stroke-miterlimit:10;} .st5{fill:#FFFFFF;stroke:#FFFFFF;stroke-width:0.25;stroke-linecap:round;stroke-linejoin:round;stroke-miterlimit:10;} .st6{fill:none;stroke:#FFFFFF;stroke-linecap:round;stroke-linejoin:round;stroke-miterlimit:10;} .st7{fill:#FFFFFF;stroke:#FFFFFF;stroke-linecap:round;stroke-linejoin:round;stroke-miterlimit:10;}</style><g id="luci" class="st0"><path class="st3" d="M1.2 100.3c0-26.7 9.3-49.9 27.6-69 18.7-19.4 42.2-29.9 69-30.2 57.2-.6 102.1 44.1 101 101.6-1 52.4-43.9 97-100.5 96.2-53.6-.7-97.2-44.6-97.1-98.6zm192.6.1c.2-52.5-42-93.8-95.5-94.2-28.5 1.9-52.7 12.6-71 35.1-13.2 16.3-20.3 35.3-20.8 56.4-1.1 55.1 42.3 95.6 92.1 96.4 26.2.4 49.2-8.8 67.8-27.5 18.2-18.3 27.1-40.5 27.4-66.2z"/><g class="st1"><path class="st2" d="M99.5 66.4l-31.9 24 11.8 37.1h39.4l11.8-37.4zM100 12.3c-48.5 0-87.8 39.3-87.8 87.8s39.3 87.8 87.8 87.8 87.7-39.3 87.7-87.8c.1-48.6-39.2-87.8-87.7-87.8zm18.8 115.2l-19.7 58.5-19.6-58.5-59.9-1.4 48.1-35.8-19-59.1 50.9 35.1 50.3-35.1-19.2 58.8 49.2 35.6-61.1 1.9z"/></g></g><g id="Fandemonium"><path class="st2" d="M1.2 100.3c0-26.7 9.3-49.9 27.6-69 18.7-19.4 42.2-29.9 69-30.2 57.2-.6 102.1 44.1 101 101.6-1 52.4-43.9 97-100.5 96.2-53.6-.7-97.2-44.6-97.1-98.6zm192.6.1c.2-52.5-42-93.8-95.5-94.2-28.5 1.9-52.7 12.6-71 35.1-13.2 16.3-20.3 35.3-20.8 56.4-1.1 55.1 42.3 95.6 92.1 96.4 26.2.4 49.2-8.8 67.8-27.5 18.2-18.3 27.1-40.5 27.4-66.2z"/><path class="st5" d="M138.9 108.4l-47.9-29.2c-2-1.2-4.6-.6-5.9 1.4l-39 64c-1.2 2-.6 4.6 1.4 5.9l47.9 29.2c2 1.2 4.6.6 5.9-1.4l39-64c1.2-2.1.6-4.7-1.4-5.9zm-32.4 59.5l-53.7-32.4 7.2-11.9 53.7 32.4-7.2 11.9zm9.2-66c-.7 1.2-2.3 1.6-3.5.9l-4.5-2.6c-1.2-.7-1.6-2.3-.9-3.5s2.3-1.6 3.5-.9l4.5 2.6c1.2.8 1.6 2.3.9 3.5zM115.6 83.9s-4.1 9.9-4.6 11.8c-.4 1.9 1 6.5 4.5 2.7 3.6-3.8 4.4-13.2 4.4-13.2l-4.3-1.3z"/><path class="st6" d="M119.2 70.7l4.6 1.4-3.8 13.1-4.4-1.3z"/><path class="st7" d="M135.6 31.8c-1.8-4-6.7-11.7-23-20.3-16.2-8.6-36.7-6.1-36.7-6.1s-13.2 3.9 3.1 4.3c2.4 0 5.7 2.2 11.2 4.5 5.5 2.3 10.3 6.1 12.2 7.7 1.9 1.5 5 3.5 6.6 5.3 1.6 1.8 5.7 9.3 9.3 15 3.7 5.6 3.5 14.2 2.8 19.4-.6 5.1-1.9 9.3-1.9 9.3l4.6 1.3c1.2-4.2 4.7-11.4 11.2-18.7 6.4-7.5 2.4-17.7.6-21.7zm-2.6 16.3c-1 2.7-6.5 8.3-6.5 8.3 1-4.4-3.6-16.9-4.9-18.6-1.3-1.8-4.7-5.9-5.8-8.7-1.2-2.8-3.7-5.2-7.8-9.2-4.1-4-16.5-9.9-16.5-9.9s5.8.9 12.7 3.1c6.9 2.1 21.4 10.8 26.5 18.9 5 8 3.4 13.4 2.3 16.1z"/></g></svg>