<svg xmlns="http://www.w3.org/2000/svg" width="200" height="200" viewBox="0 0 200 200"><style type="text/css">.st0{display:none;} .st1{fill:#FFFFFF;} .st2{display:inline;fill:#FFFFFF;} .st3{display:inline;}</style><g id="WÅden"><path class="st1" d="M.1 99.2c0-26.7 9.3-49.9 27.6-69 18.7-19.4 42.2-29.9 69-30.2 57.2-.6 102.1 44.1 100.9 101.6-1 52.4-43.9 97-100.5 96.2-53.5-.7-97.1-44.6-97-98.6zm192.6.1c.2-52.5-42-93.8-95.5-94.2-28.4 1.9-52.6 12.6-70.9 35-13.3 16.4-20.4 35.4-20.9 56.5-1.1 55.1 42.3 95.6 92.1 96.4 26.2.4 49.2-8.8 67.8-27.5 18.2-18.3 27.1-40.5 27.4-66.2zM99.2 13c-47.5 0-86 38.5-86 86s38.5 86 86 86 86-38.5 86-86-38.5-86-86-86zm8 102.9v-38.6c21 4.3 22.7 16.8 23.1 23.1l-6.3 9.4c-9.1 2.4-10.9 3.8-14 5.7l-2.8.4zm-39.2-15.5c.4-6.3 2.1-18.8 23.1-23.1v38.6s.3 1.5-2.8-.4-4.9-3.3-14-5.7c0 0-6.7-3.1-6.3-9.4zm-35.1-46.2s.2-2.2 1.6 2.4c1.4 4.5 5.2 10.9 10.5 19.6 0 0-.5 4.3-.5 4.8s-.4.8-.8.5c-.4-.3-5.8-4.3-10.4-9.7 0 0-.7-.5-.8-1.8-.1-1.2.4-15.8.4-15.8zm1.2 34.3c-.2-1.9-.8-8.4-1.3-11.7 0 0-.6-2.9 1.2-1 1.8 2 7.8 7.6 8.9 8.5 0 0 1.2.8 1.2 1.7v9.1c0 .5-.4.9-1.7.3-1.3-.6-7.1-4.4-7.5-4.5-.3-.1-.6-.4-.8-2.4zm2 8.3s-1.4-3.1.5-1.8c2 1.4 7.7 4.8 8 4.7 0 0 1.5 6.1 1.8 6.6.3.4.2 1.3-.6 1-.9-.3-5.2-1.7-5.7-2.1-.6-.3-1.5-.7-4-8.4zm7.2 16c-.7-1.1-1.6-2.8-2.1-3.6-.5-.8-.3-1.3.8-.9s4.9 2.5 5.2 2.5c.3 0 .8.3 1 .5 0 0 1.5 2.9 1.6 3.3.2.4.1 1.1-1.2.8-1.3-.3-3-.9-3.5-1-.4-.1-1.1-.5-1.8-1.6zm14.4-13.1l.3 4.7c0 .8-.7.9-.9.9s-7.1-.4-7.6-.5c-.5 0-1.2 0-1.3-.8-.1-.8-1.2-8-1.2-8-.2-1.2 1.2-.2 1.2-.2 2.2 1 7.2 2.9 8.4 3.2.8.1 1 .5 1.1.7zm-7.4 7.1c.6.1 5.9.7 7.3.9 1.4.1 1.5.6 1.5.6s.7 1.9 1.2 3.1c.5 1.2-.4 1.3-.4 1.3h-7.2c-.9 0-1.2-.2-1.3-.5-.1-.3-1.8-4.9-1.8-4.9-.3-.3.1-.6.7-.5zm8.3-15.1c0 .3-.4 4.4-.6 5.1-.1.7-1.4.5-1.4.5l-8.8-4.4c-1-.5-1-1.5-1-1.5l.2-10.2c.1-3.5 1.5-1.3 1.5-1.3 3.1 4.3 8.7 9.6 9.5 10.4.7.7.6 1 .6 1.4zm-2.1 32.5c-1 0-3.1.1-4-.5-.9-.6-3.8-4.3-4.1-4.8-.3-.5-.1-.9.9-.8 1 .1 3.9.4 3.9.4s3.9 4.4 4.2 4.8c.3.4.1.9-.9.9zm-2.5-8.8c-.5-.6-.1-1.1.3-1.1h6.5s1 0 1.3.4c.3.4 1.3 1.8 1.9 2.6.6.8.5 1.3.2 1.4-.3.1-3 1.2-4 1.5-.9.3-1.7.3-2.2 0-.5-.3-4-4.8-4-4.8zm16.5 14.6c-1.8.9-3.2 2-3.6 2.1s-.8-.1-.9-1l-.1-2.7c0-.5.1-.8 1-1.1 1-.3 3.6-2.5 4-2 0 0 1.2 1.4 1.1 3.1 0 0 .2.6-1.5 1.6zm-1.3-6.6c-.8.5-1.9 1-1.9 1s-1 .4-2.3 0-3.5-1.3-3.8-1.4c-.2-.1-1-.4 0-.8 0 0 3.8-1.6 4.2-1.6.4 0 .8 0 1.4.2s2.1 1.1 2.3 1.3c.3.1 1 .8.1 1.3zm-10.1 6.2c-.4-.1-.8-.6-.9-1.7-.1-1.1-.1-1.9 1.7-2 1.9-.1 2.9-.3 3 .3 0 0 .6 2 .2 2.8s-.7.5-1.2.6c-.5 0-2.4.1-2.8 0zm1.7 6.3c-.4-1.2-.4-2.2-.5-2.6-.1-.3-.4-.9.7-.9h2.5c.5 0 .7 2.1.7 3.3s-.8 1.3-1.4 1.3c-.5 0-1.6.1-2-1.1zm4 6.6c-.8-.4-1.3-1.7-1.5-2.1-.2-.4-.3-1 .3-1.2 0 0 .7-.3 1.7-.6 1-.2.7.8.7 1.2v1.9s-.4 1.2-1.2.8zm3.3 2.8c-.3 0-1.4 0-1.9-.7s-.1-1.2.3-1.1c0 0 1.2.3 1.6.3.4.1.3 1.5 0 1.5zm0-7.3c-.5-.8-.8-2.5-.7-3.3.1-.8.3-.9.7-1.2.5-.3 3.6-2.3 3.4-2.1s.9-.7 1.2-.3c0 0 1 1.6 1.3 1.9.3.3.3 1.1-.6 1.7-.9.6-3.2 2.7-3.6 3.1-.6.4-1.3 1.1-1.7.2zm5.6-13.4s15.6 1.8 18.3 14c.1.1-16.6.1-18.3-14zm-1.6 18.1c-.7-.6-1.6-1.5-1.8-1.9-.3-.4-.2-1.1.5-1.5.7-.4 3.5-2.4 3.9-2.8.4-.3.9-1.1 1.2-.9 0 0 1.3 1 1.9 1.3.6.3.1 1.3-1.3 2.7s-2.7 2.8-2.9 2.9c-.3.2-.8.8-1.5.2zm4 5.1c-.6-.4-1.6-1.3-2-1.6-.4-.3-.4-.7.3-1.3.6-.7 4.6-4.9 5-5.3.4-.4.5-1 .9-.9l2.8 1.1c.2.1.5.2-.5 1.7s-4.3 5.9-4.7 6.3c-.5.4-1.3.5-1.8 0zm6.5 2.9c-.8-.4-1.7-.6-2.1-.8-.4-.2-.4-.7 0-1.3.4-.7 3.9-5.8 4.3-6.2.6-.6 1.1-1.6 1.6-1.6.1 0 1.2.3 1.4.3s.4.3 0 1.5-3.3 7.4-3.6 7.8c-.3.4-.9.7-1.6.3zm9.7-.8c0 .3-1.2 2.1-3.6 2.4-2.4.3-2.1-1.1-2-1.5.1-.3 1.4-3.8 1.8-4.7s1.7-3.7 1.9-4.1c.1-.4.3-.5.7-.5h1c.3 0 .6.1.6 1.6s-.4 6.5-.4 6.8zm11.9 5.1s-1.2 3.6-5.1 3.6c-3.9 0-5.4-3.6-5.4-3.6s-.4-15-.4-20.3c0-5.4-9.6-9.6-15.2-11.5-5.6-1.9-10.3-4.4-14.4-9.5-4.1-5-2.9-20-2.5-22.2.4-2.2-1.5-3.5-1.5-3.5-11.1-10-16.3-20.4-16.3-20.4 3.5 5.4 20.6 17.8 22.7 19 2.1 1.2 1.8 2.4 1.8 2.4s-1.8 4.6-2.4 11.3c-.6 6.8 4.1 9.9 5.6 10.9s7.2 2.9 12.2 4.4 7.4 3.6 8.8 4l1.2-1.4v-41.2s.3-5.4 6-5.4 5.6 5.4 5.6 5.4v41.1s-.2 1.8 1.2 1.4 3.8-2.5 8.8-4c5-1.4 10.7-3.3 12.2-4.4 1.5-1 6.2-4.1 5.6-10.9-.6-6.8-2.4-11.3-2.4-11.3s-.3-1.2 1.8-2.4 19.1-13.5 22.7-19c0 0-5.2 10.4-16.3 20.3 0 0-1.9 1.3-1.5 3.5.4 2.2 1.6 17.2-2.5 22.2s-8.8 7.6-14.4 9.5c-5.6 1.9-15.2 6.2-15.2 11.5.1 5.5-.7 20.5-.7 20.5zm44.5-50.6c-.5 0-7.4.5-7.6.5-.2 0-.9 0-.9-.9 0-.7.2-4 .3-4.6v-.1.1c.1-.2.3-.7 1.1-.8 1.2-.3 6.2-2.2 8.4-3.2 0 0 1.3-1 1.2.2 0 0-1 7.3-1.2 8-.1.8-.8.7-1.3.8zm.1 2.6s-1.7 4.6-1.8 4.9c-.1.3-.4.5-1.3.5h-7.2s-.9-.1-.4-1.3 1.2-3.1 1.2-3.1.1-.5 1.5-.6c1.4-.1 6.7-.7 7.3-.9.5-.2.8 0 .7.5zm1.8-14.5l-8.8 4.4s-1.3.1-1.4-.5c-.1-.7-.6-4.8-.6-5.1 0-.3-.1-.6.7-1.4.8-.8 6.3-6.1 9.5-10.4 0 0 1.5-2.2 1.5 1.3l.2 10.2c-.1 0-.2.9-1.1 1.5zm-18.3 38.1c-.1 1-.5 1.2-.9 1s-1.8-1.2-3.6-2.1l-1.6-1.5c-.1-1.7 1.1-3.1 1.1-3.1.4-.6 3.1 1.6 4 2 1 .3 1.1.7 1 1.1 0 .4.1 1.7 0 2.6zm-1.3-6.6s-1.1-.5-1.9-1c-.8-.5-.2-1.3 0-1.4.2-.1 1.7-1 2.3-1.3.6-.2 1-.2 1.4-.2l4.2 1.6c1 .4.2.7 0 .8-.2.1-2.4.9-3.8 1.4-1.3.6-2.2.1-2.2.1zm-6.7.9c-1.6 14.1-18.3 14-18.3 14 2.7-12.2 18.3-14 18.3-14zm-14.7 27c-2.4-.3-3.6-2.1-3.6-2.4s-.4-5.3-.4-6.8.3-1.6.6-1.6h1c.3 0 .5.1.7.5.1.4 1.5 3.2 1.9 4.1s1.6 4.4 1.8 4.7c.1.4.4 1.9-2 1.5zm8.2-2.5c-.4.2-1.3.4-2.1.8s-1.3.1-1.6-.3c-.3-.4-3.2-6.6-3.6-7.8-.4-1.2-.2-1.5 0-1.5s1.3-.3 1.4-.3c.5-.1 1.1 1 1.6 1.6.4.4 3.9 5.6 4.3 6.2.4.7.4 1.1 0 1.3zm6.5-3.6c-.4.3-1.4 1.1-2 1.6s-1.3.4-1.7 0c-.4-.4-3.7-4.9-4.7-6.3-1-1.4-.7-1.6-.5-1.7s2.5-1 2.8-1.1c.4-.1.5.5.9.9s4.4 4.6 5 5.3c.5.6.6 1 .2 1.3zm3.8-5.4c-.3.4-1.1 1.3-1.8 1.9-.7.6-1.3 0-1.5-.2-.2-.1-1.4-1.5-2.9-2.9-1.4-1.4-1.9-2.4-1.3-2.7.6-.3 1.9-1.3 1.9-1.3.3-.2.8.6 1.2.9s3.2 2.3 3.9 2.8c.6.4.7 1.1.5 1.5zm.5-3c-.5-.4-2.7-2.5-3.6-3.1-.9-.6-.9-1.4-.6-1.7.3-.3 1.3-1.9 1.3-1.9.3-.4 1.4.5 1.2.3s2.9 1.8 3.4 2.1c.5.3.7.4.7 1.2s-.2 2.5-.7 3.3c-.6.8-1.2.2-1.7-.2zm3.5 6.8c-.5.7-1.6.7-1.9.7-.3 0-.4-1.4 0-1.5.4 0 1.6-.3 1.6-.3.5-.1.9.4.3 1.1zm2.9-4.3c-.2.4-.7 1.7-1.5 2.1-.8.4-1.2-.6-1.2-.8v-1.9c0-.3-.3-1.4.7-1.2 1 .2 1.7.6 1.7.6.6.2.5.8.3 1.2zm3-7.1c-.1.3-.1 1.4-.5 2.6-.4 1.2-1.5 1.1-2 1.1s-1.3-.2-1.4-1.3.1-3.3.7-3.3h2.5c1.1.1.8.6.7.9zm2.1-5.3c-.1 1.1-.4 1.6-.9 1.7-.4.1-2.3 0-2.8 0-.6 0-.8.3-1.2-.6-.4-.8.2-2.8.2-2.8.1-.6 1.1-.4 3-.3 1.8.1 1.8.9 1.7 2zm.2-7.7c-.4.3-1.2.3-2.2 0s-3.6-1.4-4-1.5c-.3-.1-.4-.6.2-1.4.6-.8 1.6-2.2 1.9-2.6.3-.4.7-.4 1.3-.4h6.5s.8.5.3 1.1c0 0-3.5 4.5-4 4.8zm9.6-1.3c-.3.5-3.2 4.1-4.1 4.8-.9.6-3 .5-4 .5s-1.2-.5-.8-.9c.3-.3 4.2-4.8 4.2-4.8s2.9-.3 3.9-.4c.9 0 1.1.3.8.8zm7.1-9.7c-.5.7-1.4 2.5-2.1 3.6-.7 1.1-1.3 1.5-1.9 1.7-.5.1-2.2.7-3.5 1-1.3.3-1.4-.4-1.2-.8.2-.4 1.6-3.3 1.6-3.3.2-.2.7-.4 1-.5.3 0 4.1-2.1 5.2-2.5 1.2-.6 1.4-.1.9.8zm5.2-12.4c-2.5 7.7-3.4 8.1-4 8.4-.5.3-4.9 1.8-5.7 2.1-.9.3-.9-.5-.6-1 .3-.4 1.8-6.6 1.8-6.6.3 0 6.1-3.3 8-4.7 2-1.3.5 1.8.5 1.8zm3.3-20c-.5 3.3-1.1 9.8-1.3 11.7-.2 1.9-.5 2.2-.9 2.3s-6.2 3.9-7.5 4.5c-1.3.6-1.7.2-1.7-.3v-9.1c0-.8 1.2-1.7 1.2-1.7 1.1-1 7.2-6.6 8.9-8.5 1.9-1.9 1.3 1.1 1.3 1.1zm-.5-5c-4.7 5.3-10.1 9.4-10.4 9.7-.4.3-.8 0-.8-.5s-.5-4.8-.5-4.8c5.3-8.7 9.1-15.1 10.5-19.6 1.4-4.5 1.6-2.4 1.6-2.4s.5 14.6.4 15.8c-.1 1.2-.8 1.8-.8 1.8z"/></g></svg>